<svg width="16" height="17" viewBox="0 0 16 17" fill="none" xmlns="http://www.w3.org/2000/svg">
<path fill-rule="evenodd" clip-rule="evenodd" d="M14.3853 3.92219C14.581 3.72846 14.8061 3.63159 15.0606 3.63159C15.315 3.63159 15.5401 3.72846 15.7358 3.92219C15.9119 4.09655 16 4.3145 16 4.57604C16 4.83758 15.9119 5.05552 15.7358 5.22988L6.37064 14.5581C6.35107 14.5775 6.3315 14.5968 6.31193 14.6162C6.29235 14.6356 6.27278 14.655 6.25321 14.6743C6.07706 14.8681 5.85688 14.9649 5.59266 14.9649C5.32844 14.9649 5.10826 14.8681 4.93211 14.6743L0.26422 10.0829C0.0880725 9.90851 0 9.69057 0 9.42903C0 9.16749 0.0880725 8.94954 0.26422 8.77518C0.45994 8.58145 0.685014 8.48458 0.93945 8.48458C1.19389 8.48458 1.41896 8.58145 1.61468 8.77518L5.57798 12.6983L14.3853 3.92219Z" fill="#FFA438"/>
</svg>
