<svg width="15" height="15" viewBox="0 0 15 15" fill="none" xmlns="http://www.w3.org/2000/svg">
<path fill-rule="evenodd" clip-rule="evenodd" d="M12.8586 2.14145C13.0362 2.31908 13.125 2.54112 13.125 2.80757C13.125 3.07401 13.0362 3.29605 12.8586 3.47368L8.83224 7.5L12.8586 11.5263C13.0362 11.7039 13.125 11.926 13.125 12.1924C13.125 12.4589 13.0362 12.6809 12.8586 12.8586C12.6809 13.0362 12.4589 13.125 12.1924 13.125C11.926 13.125 11.7039 13.0362 11.5263 12.8586L7.5 8.83224L3.47368 12.8586C3.29605 13.0362 3.07401 13.125 2.80757 13.125C2.54112 13.125 2.31908 13.0362 2.14145 12.8586C1.96381 12.6809 1.875 12.4589 1.875 12.1924C1.875 11.926 1.96381 11.7039 2.14145 11.5263L6.16776 7.5L2.14145 3.47368C1.96381 3.29605 1.875 3.07401 1.875 2.80757C1.875 2.54112 1.96381 2.31908 2.14145 2.14145C2.31908 1.96381 2.54112 1.875 2.80757 1.875C3.07401 1.875 3.29605 1.96381 3.47368 2.14145L7.5 6.16776L11.5263 2.14145C11.7039 1.96381 11.926 1.875 12.1924 1.875C12.4589 1.875 12.6809 1.96381 12.8586 2.14145Z" fill="#606483"/>
</svg>
