<svg width="17" height="16" viewBox="0 0 17 16" fill="none" xmlns="http://www.w3.org/2000/svg">
<path fill-rule="evenodd" clip-rule="evenodd" d="M14.2158 2.28421C14.4053 2.47369 14.5 2.71052 14.5 2.99474C14.5 3.27895 14.4053 3.51579 14.2158 3.70526L9.92105 8L14.2158 12.2947C14.4053 12.4842 14.5 12.7211 14.5 13.0053C14.5 13.2895 14.4053 13.5263 14.2158 13.7158C14.0263 13.9053 13.7895 14 13.5053 14C13.2211 14 12.9842 13.9053 12.7947 13.7158L8.5 9.42105L4.20526 13.7158C4.01579 13.9053 3.77895 14 3.49474 14C3.21052 14 2.97369 13.9053 2.78421 13.7158C2.59474 13.5263 2.5 13.2895 2.5 13.0053C2.5 12.7211 2.59474 12.4842 2.78421 12.2947L7.07895 8L2.78421 3.70526C2.59474 3.51579 2.5 3.27895 2.5 2.99474C2.5 2.71052 2.59474 2.47369 2.78421 2.28421C2.97369 2.09474 3.21052 2 3.49474 2C3.77895 2 4.01579 2.09474 4.20526 2.28421L8.5 6.57895L12.7947 2.28421C12.9842 2.09474 13.2211 2 13.5053 2C13.7895 2 14.0263 2.09474 14.2158 2.28421Z" fill="#B6C2DA"/>
</svg>
