<svg width="13" height="12" viewBox="0 0 13 12" fill="none" xmlns="http://www.w3.org/2000/svg">
<path d="M0.229126 1.03767C0.229126 0.603729 0.580902 0.251953 1.01484 0.251953H11.4434C11.8773 0.251953 12.2291 0.603729 12.2291 1.03767C12.2291 1.47161 11.8773 1.82338 11.4434 1.82338H1.01484C0.580902 1.82338 0.229126 1.47161 0.229126 1.03767ZM0.229126 5.75195C0.229126 5.31802 0.580902 4.96624 1.01484 4.96624H11.4434C11.8773 4.96624 12.2291 5.31802 12.2291 5.75195C12.2291 6.18589 11.8773 6.53767 11.4434 6.53767H1.01484C0.580902 6.53767 0.229126 6.18589 0.229126 5.75195ZM0.229126 10.4662C0.229126 10.0323 0.580902 9.68052 1.01484 9.68052H11.4434C11.8773 9.68052 12.2291 10.0323 12.2291 10.4662C12.2291 10.9002 11.8773 11.252 11.4434 11.252H1.01484C0.580903 11.252 0.229126 10.9002 0.229126 10.4662Z" fill="#606483"/>
</svg>
