<svg width="15" height="13" viewBox="0 0 15 13" fill="none" xmlns="http://www.w3.org/2000/svg">
<path d="M13.6729 1.80711H11.5718C11.4297 1.35608 11.1476 0.962101 10.7663 0.682425C10.385 0.402749 9.92443 0.251953 9.45157 0.251953C8.9787 0.251953 8.51815 0.402749 8.13686 0.682425C7.75556 0.962101 7.47339 1.35608 7.33135 1.80711H0.785371C0.608578 1.80711 0.439027 1.87734 0.314016 2.00236C0.189005 2.12737 0.118774 2.29692 0.118774 2.47371C0.118774 2.6505 0.189005 2.82005 0.314016 2.94507C0.439027 3.07008 0.608578 3.14031 0.785371 3.14031H7.33046C7.4725 3.59134 7.75467 3.98532 8.13597 4.265C8.51726 4.54467 8.97781 4.69547 9.45068 4.69547C9.92355 4.69547 10.3841 4.54467 10.7654 4.265C11.1467 3.98532 11.4289 3.59134 11.5709 3.14031H13.6729C13.8497 3.14031 14.0192 3.07008 14.1443 2.94507C14.2693 2.82005 14.3395 2.6505 14.3395 2.47371C14.3395 2.29692 14.2693 2.12737 14.1443 2.00236C14.0192 1.87734 13.8497 1.80711 13.6729 1.80711Z" fill="#606483"/>
<path d="M0.785371 9.36224C0.608578 9.36224 0.439027 9.43247 0.314016 9.55748C0.189005 9.68249 0.118774 9.85204 0.118774 10.0288C0.118774 10.2056 0.189005 10.3752 0.314016 10.5002C0.439027 10.6252 0.608578 10.6954 0.785371 10.6954H2.88648C3.0283 11.1468 3.31043 11.5411 3.69184 11.8211C4.07324 12.101 4.53403 12.252 5.00715 12.252C5.48027 12.252 5.94105 12.101 6.32245 11.8211C6.70386 11.5411 6.98599 11.1468 7.12781 10.6954H13.6729C13.8497 10.6954 14.0192 10.6252 14.1443 10.5002C14.2693 10.3752 14.3395 10.2056 14.3395 10.0288C14.3395 9.85204 14.2693 9.68249 14.1443 9.55748C14.0192 9.43247 13.8497 9.36224 13.6729 9.36224H7.12781C6.98599 8.91087 6.70386 8.51653 6.32245 8.23657C5.94105 7.95662 5.48027 7.80566 5.00715 7.80566C4.53403 7.80566 4.07324 7.95662 3.69184 8.23657C3.31043 8.51653 3.0283 8.91087 2.88648 9.36224H0.785371Z" fill="#606483"/>
</svg>
