<svg width="16" height="16" viewBox="0 0 16 16" fill="none" xmlns="http://www.w3.org/2000/svg">
<ellipse rx="7.99995" ry="8" transform="matrix(1 0 0 -1 8.0002 8)" fill="#B6C2DA"/>
<path d="M11.4658 9.92729C11.7569 10.2184 11.7569 10.6903 11.4658 10.9814L11.3072 11.1401C11.0161 11.4312 10.5441 11.4312 10.253 11.1401L8.01748 8.90452L5.78193 11.1401C5.49084 11.4312 5.01888 11.4312 4.72779 11.1401L4.56915 10.9814C4.27806 10.6903 4.27806 10.2184 4.56915 9.92729L6.8047 7.69173L4.56915 5.45617C4.27806 5.16508 4.27806 4.69312 4.56915 4.40203L4.72779 4.24338C5.01888 3.95229 5.49084 3.95229 5.78193 4.24339L8.01748 6.47894L10.253 4.24339C10.5441 3.95229 11.0161 3.95229 11.3072 4.24339L11.4658 4.40203C11.7569 4.69312 11.7569 5.16508 11.4658 5.45617L9.23026 7.69173L11.4658 9.92729Z" fill="white"/>
</svg>
