<svg width="24" height="24" viewBox="0 0 24 24" fill="none" xmlns="http://www.w3.org/2000/svg">
<path d="M18.9043 3.28501C16.9317 1.2639 13.3236 1.66985 10.8536 4.20056C9.50481 5.58252 8.72925 7.54317 8.71239 8.91649C8.69553 10.2812 8.93157 12.2764 7.57433 13.667L4.584 16.7308C4.2592 17.0636 4.2592 17.5947 4.584 17.9275C4.92015 18.2719 5.47398 18.2719 5.81013 17.9275L8.7714 14.8935C10.1286 13.5029 12.076 13.7447 13.4079 13.7274C14.7399 13.7102 16.6619 12.9155 18.0107 11.5336C20.4723 9.00287 20.8769 5.30613 18.9043 3.28501ZM11.1487 11.2226C9.85887 9.90114 10.2635 7.24087 12.0423 5.41841C13.821 3.59596 16.409 3.18137 17.7072 4.50287C18.997 5.82436 18.5924 8.48463 16.8137 10.3071C15.0349 12.1295 12.4469 12.5441 11.1487 11.2226ZM17.6229 15.8176C18.0697 15.8176 18.4997 15.999 18.8116 16.3272C19.4691 17.001 19.4691 18.0979 18.8116 18.7716C18.4997 19.0912 18.0697 19.2725 17.6229 19.2725C17.1761 19.2725 16.7462 19.0912 16.4343 18.7629C15.7768 18.0892 15.7768 16.9923 16.4343 16.3186C16.7462 15.999 17.1761 15.8176 17.6229 15.8176ZM17.6229 14.0902C16.9553 14.0888 16.3022 14.2907 15.7467 14.6701C15.1912 15.0496 14.7581 15.5895 14.5026 16.2215C14.247 16.8535 14.1804 17.549 14.3112 18.2198C14.442 18.8907 14.7643 19.5066 15.2372 19.9894C15.8948 20.6631 16.7631 21 17.6229 21C18.2906 21.0014 18.9436 20.7995 19.4992 20.4201C20.0547 20.0406 20.4877 19.5006 20.7433 18.8687C20.9989 18.2367 21.0655 17.5412 20.9347 16.8704C20.8039 16.1995 20.4816 15.5836 20.0086 15.1008C19.6953 14.7799 19.3233 14.5256 18.914 14.3522C18.5046 14.1788 18.0659 14.0898 17.6229 14.0902Z" fill="#FFA438"/>
</svg>
