<svg width="24" height="24" viewBox="0 0 24 24" fill="none" xmlns="http://www.w3.org/2000/svg">
<path fill-rule="evenodd" clip-rule="evenodd" d="M12.7852 2.19311C12.7852 1.98481 12.7025 1.78504 12.5552 1.63775C12.4079 1.49046 12.2081 1.40771 11.9998 1.40771C11.7915 1.40771 11.5917 1.49046 11.4445 1.63775C11.2972 1.78504 11.2144 1.98481 11.2144 2.19311V3.50212H8.18397C7.86458 3.50212 7.55146 3.58589 7.27396 3.74297L5.92516 4.51476C5.88531 4.53755 5.84017 4.54947 5.79426 4.54931H3.45482C3.24652 4.54931 3.04675 4.63206 2.89946 4.77935C2.75216 4.92664 2.66942 5.12641 2.66942 5.33472C2.66942 5.54302 2.75216 5.74279 2.89946 5.89008C3.04675 6.03737 3.24652 6.12012 3.45482 6.12012H3.90302L1.69133 11.0336C1.62601 11.1789 1.60645 11.3407 1.63525 11.4975C1.66406 11.6542 1.73986 11.7985 1.8526 11.9111V11.9122L1.8547 11.9143L1.85679 11.9164L1.86307 11.9227L1.87983 11.9384L1.92695 11.9802C2.14719 12.1648 2.38829 12.323 2.64533 12.4515C3.30476 12.773 4.03024 12.9358 4.76382 12.9269C5.68535 12.9269 6.39326 12.6965 6.8823 12.4515C7.13934 12.323 7.38044 12.1648 7.60068 11.9802L7.64781 11.9384L7.66456 11.9227L7.67084 11.9164L7.67294 11.9143L7.67399 11.9122L7.12002 11.3561L7.67503 11.9111C7.78777 11.7985 7.86358 11.6542 7.89238 11.4975C7.92119 11.3407 7.90163 11.1789 7.8363 11.0336L5.62462 6.12012H5.79426C6.11366 6.12012 6.42677 6.03634 6.70428 5.87926L8.05412 5.10747C8.09366 5.08485 8.13842 5.07294 8.18397 5.07292H11.2144V21.0213H8.59642C8.38812 21.0213 8.18835 21.1041 8.04106 21.2514C7.89376 21.3986 7.81102 21.5984 7.81102 21.8067C7.81102 22.015 7.89376 22.2148 8.04106 22.3621C8.18835 22.5094 8.38812 22.5921 8.59642 22.5921H15.4032C15.6115 22.5921 15.8113 22.5094 15.9586 22.3621C16.1059 22.2148 16.1886 22.015 16.1886 21.8067C16.1886 21.5984 16.1059 21.3986 15.9586 21.2514C15.8113 21.1041 15.6115 21.0213 15.4032 21.0213H12.7852V5.07292H15.8157C15.8612 5.07294 15.906 5.08485 15.9455 5.10747L17.2964 5.87821C17.5729 6.03739 17.886 6.12012 18.2054 6.12012H18.375L16.1633 11.0336C16.098 11.1789 16.0784 11.3407 16.1073 11.4975C16.1361 11.6542 16.2119 11.7985 16.3246 11.9111V11.9122L16.3267 11.9143L16.3288 11.9164L16.3351 11.9227L16.3518 11.9384L16.399 11.9802C16.6192 12.1648 16.8603 12.323 17.1173 12.4515C17.7768 12.773 18.5022 12.9358 19.2358 12.9269C20.1574 12.9269 20.8653 12.6965 21.3543 12.4515C21.6114 12.323 21.8525 12.1649 22.0727 11.9802L22.1198 11.9384L22.1303 11.9279L22.1366 11.9227L22.1428 11.9164L22.1449 11.9143L22.146 11.9122L21.592 11.3561L22.147 11.9111C22.2598 11.7985 22.3356 11.6542 22.3644 11.4975C22.3932 11.3407 22.3736 11.1789 22.3083 11.0336L20.0977 6.12012H20.5448C20.7531 6.12012 20.9529 6.03737 21.1002 5.89008C21.2475 5.74279 21.3302 5.54302 21.3302 5.33472C21.3302 5.12641 21.2475 4.92664 21.1002 4.77935C20.9529 4.63206 20.7531 4.54931 20.5448 4.54931H18.2054C18.1598 4.54929 18.1151 4.53738 18.0755 4.51476L16.7246 3.74402C16.4482 3.58585 16.1352 3.50248 15.8167 3.50212H12.7852V2.19311ZM3.39722 11.0702C3.69567 11.2116 4.14911 11.3561 4.76382 11.3561C5.37852 11.3561 5.83196 11.2116 6.13041 11.0702L4.76382 8.03335L3.39722 11.0702ZM17.8692 11.0702C18.1677 11.2116 18.6211 11.3561 19.2358 11.3561C19.8505 11.3561 20.304 11.2116 20.6024 11.0702L19.2358 8.03335L17.8692 11.0702Z" fill="#FFA438"/>
</svg>
