<svg width="24" height="24" viewBox="0 0 24 24" fill="none" xmlns="http://www.w3.org/2000/svg">
<path d="M10.7843 3.42041C11.9637 3.42034 13.1196 3.74946 14.122 4.37074C15.1244 4.99202 15.9335 5.88078 16.4582 6.93696C16.9829 7.99315 17.2023 9.17483 17.0918 10.349C16.9813 11.5231 16.5453 12.6431 15.8327 13.5828L20.6093 18.3594C20.7624 18.5137 20.8517 18.7202 20.8594 18.9375C20.867 19.1547 20.7925 19.3669 20.6506 19.5317C20.5087 19.6964 20.3099 19.8016 20.0938 19.8262C19.8778 19.8508 19.6604 19.793 19.4851 19.6644L19.3884 19.5803L14.6118 14.8038C13.9898 15.276 13.2792 15.6354 12.5097 15.8519L12.512 15.6112V14.0286C13.2685 13.7228 13.9302 13.2217 14.4295 12.5764C14.9288 11.9311 15.2479 11.1649 15.3541 10.3559C15.4602 9.54695 15.3498 8.7243 15.0339 7.97202C14.718 7.21975 14.2081 6.56481 13.5562 6.07415C12.9044 5.58349 12.1339 5.27469 11.3236 5.17931C10.5133 5.08393 9.69219 5.20538 8.9442 5.53126C8.19621 5.85714 7.54814 6.37577 7.06623 7.03414C6.58431 7.69251 6.28583 8.46702 6.20127 9.27852C5.98013 9.35915 5.7728 9.49276 5.59772 9.67475C5.27358 10.0201 4.90482 10.3207 4.5012 10.5686C4.38559 9.67537 4.46176 8.7678 4.72463 7.90638C4.9875 7.04496 5.43103 6.24949 6.02563 5.57303C6.62022 4.89658 7.35223 4.35468 8.17281 3.98348C8.9934 3.61229 9.8837 3.42033 10.7843 3.42041Z" fill="#FFA438"/>
<path d="M8.69457 12.5073C8.31632 12.3463 7.95977 12.1384 7.63326 11.8886C7.36228 11.682 7.10818 11.4542 6.87336 11.2072C6.83477 11.1663 6.78822 11.1337 6.73657 11.1114C6.68492 11.0891 6.62926 11.0776 6.57301 11.0776C6.51676 11.0776 6.4611 11.0891 6.40946 11.1114C6.35781 11.1337 6.31126 11.1663 6.27266 11.2072C5.21666 12.3067 4.04922 12.8469 2.75124 12.8469C2.51776 12.8469 2.32672 13.0444 2.32672 13.2885V15.9428L2.33097 16.2251C2.35962 17.071 2.51563 17.8319 2.79794 18.5069C3.14888 19.3493 3.71912 20.0822 4.44934 20.6295C5.00546 21.054 5.66984 21.4011 6.43929 21.6685C6.52632 21.6983 6.61971 21.6983 6.70674 21.6685C9.42369 20.724 10.8172 18.7892 10.8172 15.9428V13.2895L10.8087 13.1993C10.7908 13.1015 10.7395 13.013 10.6637 12.9487C10.5878 12.8845 10.4921 12.8485 10.3927 12.8469C9.80947 12.8499 9.23176 12.7344 8.69457 12.5073Z" fill="#FFA438"/>
</svg>
