<svg width="24" height="24" viewBox="0 0 24 24" fill="none" xmlns="http://www.w3.org/2000/svg">
<path d="M13.6959 6.3998L15.1599 7.9998H18.3999V17.5998H5.59988V7.9998H8.83988L10.3039 6.3998H13.6959ZM14.3999 4.7998H9.59988L8.13588 6.3998H5.59988C4.71988 6.3998 3.99988 7.1198 3.99988 7.9998V17.5998C3.99988 18.4798 4.71988 19.1998 5.59988 19.1998H18.3999C19.2799 19.1998 19.9999 18.4798 19.9999 17.5998V7.9998C19.9999 7.1198 19.2799 6.3998 18.3999 6.3998H15.8639L14.3999 4.7998ZM11.9999 10.3998C13.3199 10.3998 14.3999 11.4798 14.3999 12.7998C14.3999 14.1198 13.3199 15.1998 11.9999 15.1998C10.6799 15.1998 9.59988 14.1198 9.59988 12.7998C9.59988 11.4798 10.6799 10.3998 11.9999 10.3998ZM11.9999 8.79981C9.79188 8.79981 7.99988 10.5918 7.99988 12.7998C7.99988 15.0078 9.79188 16.7998 11.9999 16.7998C14.2079 16.7998 15.9999 15.0078 15.9999 12.7998C15.9999 10.5918 14.2079 8.79981 11.9999 8.79981Z" fill="#FFA438"/>
</svg>
