<svg width="24" height="24" viewBox="0 0 24 24" fill="none" xmlns="http://www.w3.org/2000/svg">
<path d="M16.5 17.65H18C18.8278 17.65 19.4798 17.1951 19.9542 16.4867C20.429 15.7776 20.65 14.9376 20.65 14C20.65 13.3842 20.5461 12.8017 20.3305 12.2598C20.1607 11.8329 19.9369 11.4565 19.65 11.1473V11C19.65 9.96494 19.4476 8.97168 19.0429 8.02564C18.6427 7.0898 18.1 6.27451 17.4127 5.58726C16.7255 4.9 15.9102 4.35733 14.9744 3.95706C14.0283 3.55243 13.0351 3.35 12 3.35C10.9649 3.35 9.97168 3.55243 9.02564 3.95706C8.0898 4.35733 7.27451 4.9 6.58726 5.58726C5.9 6.27451 5.35733 7.0898 4.95706 8.02564C4.55243 8.97168 4.35 9.96494 4.35 11V11.1473C4.06309 11.4565 3.83925 11.8329 3.66946 12.2598C3.45391 12.8017 3.35 13.3842 3.35 14C3.35 14.9376 3.57103 15.7776 4.04585 16.4867C4.39672 17.0106 4.84476 17.3959 5.38924 17.561C5.49984 18.3318 5.84381 19.013 6.41538 19.5846C7.122 20.2912 7.99624 20.65 9 20.65H12C12.4531 20.65 12.8591 20.4827 13.1766 20.1566C13.4874 19.8374 13.65 19.4378 13.65 18.9922C13.65 18.5462 13.4869 18.1458 13.1706 17.8294C12.8517 17.5105 12.4475 17.35 12 17.35H11C10.5525 17.35 10.1483 17.5105 9.82944 17.8294C9.67446 17.9844 9.55688 18.1596 9.47695 18.35H9C8.62043 18.35 8.31437 18.2233 8.04556 17.9544C7.93846 17.8473 7.85392 17.7343 7.79095 17.6131C7.98761 17.5618 8.16426 17.4581 8.31118 17.3112C8.52748 17.0949 8.65 16.8141 8.65 16.5V11.5C8.65 11.1859 8.52748 10.9051 8.31118 10.6888C8.13673 10.5144 7.92037 10.4009 7.67837 10.3636C7.78014 9.26506 8.15328 8.42424 8.75813 7.79373C9.461 7.06103 10.5066 6.65 12 6.65C13.4934 6.65 14.539 7.06103 15.2419 7.79373C15.8467 8.42424 16.2199 9.26506 16.3216 10.3636C16.0796 10.4009 15.8633 10.5144 15.6888 10.6888C15.4725 10.9051 15.35 11.1859 15.35 11.5V16.5C15.35 16.8141 15.4725 17.0949 15.6888 17.3112C15.9051 17.5275 16.1859 17.65 16.5 17.65Z" stroke="#FFA438" stroke-width="1.3"/>
</svg>
