<svg width="24" height="24" viewBox="0 0 24 24" fill="none" xmlns="http://www.w3.org/2000/svg">
<path d="M0.66687 16.667V18.9337C0.66687 19.3934 0.849489 19.8342 1.17455 20.1593C1.49961 20.4844 1.94049 20.667 2.4002 20.667H21.5602C22.0199 20.667 22.4608 20.4844 22.7859 20.1593C23.1109 19.8342 23.2935 19.3934 23.2935 18.9337V16.667H0.66687ZM22.0002 18.9337C22.0002 19.0397 21.9581 19.1415 21.883 19.2165C21.808 19.2915 21.7063 19.3337 21.6002 19.3337H2.37354C2.26745 19.3337 2.16571 19.2915 2.09069 19.2165C2.01568 19.1415 1.97354 19.0397 1.97354 18.9337V17.687H8.60687C8.69022 17.8836 8.82934 18.0516 9.00705 18.1701C9.18476 18.2885 9.39329 18.3524 9.60687 18.3537H14.3602C14.5738 18.3524 14.7823 18.2885 14.96 18.1701C15.1377 18.0516 15.2769 17.8836 15.3602 17.687H22.0002V18.9337Z" fill="#FFA438"/>
<path d="M6.3998 15.2533V7.06667H12.4931C12.5343 6.9033 12.5924 6.74467 12.6665 6.59333L13.0398 6H5.33313V15.2533H6.3998Z" fill="#FFA438"/>
<path d="M3.99971 4.66683H13.8064L14.573 3.3335H3.66638C3.40117 3.3335 3.14681 3.43885 2.95927 3.62639C2.77174 3.81393 2.66638 4.06828 2.66638 4.3335V15.3335H3.99971V4.66683Z" fill="#FFA438"/>
<path d="M19.9999 10.2666H21.3332V15.3333H19.9999V10.2666Z" fill="#FFA438"/>
<path d="M17.8998 0.760039L14.0865 7.33337C13.9978 7.46359 13.9468 7.61583 13.9393 7.77322C13.9318 7.93061 13.968 8.08701 14.044 8.22507C14.1199 8.36314 14.2326 8.47748 14.3695 8.55543C14.5065 8.63338 14.6623 8.6719 14.8198 8.66671H22.4531C22.6106 8.6719 22.7665 8.63338 22.9034 8.55543C23.0403 8.47748 23.153 8.36314 23.229 8.22507C23.3049 8.08701 23.3411 7.93061 23.3336 7.77322C23.3261 7.61583 23.2752 7.46359 23.1865 7.33337L19.3731 0.760039C19.2979 0.631409 19.1904 0.524713 19.0611 0.450565C18.9319 0.376417 18.7855 0.337402 18.6365 0.337402C18.4875 0.337402 18.3411 0.376417 18.2118 0.450565C18.0826 0.524713 17.975 0.631409 17.8998 0.760039Z" fill="#FFA438"/>
</svg>
