<svg width="24" height="24" viewBox="0 0 24 24" fill="none" xmlns="http://www.w3.org/2000/svg">
<path d="M10.0001 11.3335H12.0001V12.6668H10.0001V11.3335Z" fill="#FFA438"/>
<path d="M17.6335 9.44637C16.4511 7.51157 14.8382 5.87578 12.9202 4.66637C12.0341 4.1048 11.024 3.76867 9.97816 3.68732C8.93229 3.60598 7.8824 3.78189 6.92016 4.19971C6.0785 4.59671 5.34612 5.19262 4.78628 5.93598C4.22644 6.67934 3.85596 7.5478 3.70683 8.46637C3.6535 8.77971 3.6135 9.07971 3.5735 9.37304C2.94933 9.47421 2.38141 9.79388 1.97112 10.275C1.56082 10.7561 1.33483 11.3674 1.3335 11.9997V16.0864C1.3335 16.44 1.47397 16.7791 1.72402 17.0292C1.97407 17.2792 2.31321 17.4197 2.66683 17.4197V11.9997C2.66683 11.6461 2.80731 11.3069 3.05735 11.0569C3.3074 10.8068 3.64654 10.6664 4.00016 10.6664H16.4868C17.7717 10.6681 19.0034 11.1793 19.912 12.0879C20.8205 12.9964 21.3317 14.2282 21.3335 15.513V15.9997H20.0002C19.7186 15.3131 19.1941 14.7542 18.5268 14.4297C17.8594 14.1051 17.0959 14.0377 16.382 14.2401C15.6681 14.4426 15.0537 14.9009 14.6561 15.5274C14.2585 16.154 14.1055 16.905 14.2263 17.6372C14.3471 18.3694 14.7332 19.0315 15.3111 19.4971C15.8889 19.9627 16.6179 20.1993 17.359 20.1617C18.1002 20.1241 18.8015 19.8149 19.3292 19.2932C19.8569 18.7714 20.1741 18.0737 20.2202 17.333H21.3335C21.6871 17.333 22.0263 17.1926 22.2763 16.9425C22.5264 16.6925 22.6668 16.3533 22.6668 15.9997V15.513C22.6641 14.0743 22.1601 12.6815 21.2415 11.5743C20.3228 10.467 19.047 9.71458 17.6335 9.44637ZM7.3335 9.33304H4.62016C4.62016 9.12637 4.68016 8.91304 4.72016 8.66637C4.83534 7.93401 5.13593 7.24328 5.59334 6.65985C6.05075 6.07642 6.64979 5.61967 7.3335 5.33304V9.33304ZM8.66683 9.33304V5.05304C9.91146 4.89141 11.1737 5.16459 12.2402 5.82637C13.696 6.73316 14.9525 7.92616 15.9335 9.33304H8.66683ZM17.2002 18.9197C16.8705 18.9197 16.5483 18.822 16.2742 18.6388C16.0001 18.4557 15.7865 18.1954 15.6604 17.8908C15.5342 17.5863 15.5012 17.2512 15.5655 16.9279C15.6298 16.6046 15.7886 16.3076 16.0217 16.0745C16.2547 15.8414 16.5517 15.6827 16.875 15.6184C17.1983 15.5541 17.5334 15.5871 17.838 15.7132C18.1425 15.8394 18.4028 16.053 18.5859 16.3271C18.7691 16.6012 18.8668 16.9234 18.8668 17.253C18.8668 17.6951 18.6912 18.119 18.3787 18.4315C18.0661 18.7441 17.6422 18.9197 17.2002 18.9197Z" fill="#FFA438"/>
<path d="M9.44651 15.9996C9.16495 15.313 8.64045 14.7542 7.9731 14.4296C7.30575 14.1051 6.54226 14.0376 5.82834 14.2401C5.11442 14.4425 4.50003 14.9008 4.10242 15.5274C3.70481 16.1539 3.55181 16.905 3.67262 17.6371C3.79343 18.3693 4.17959 19.0314 4.75741 19.497C5.33523 19.9626 6.06427 20.1992 6.80539 20.1616C7.54652 20.124 8.24786 19.8148 8.77557 19.2931C9.30329 18.7714 9.62044 18.0736 9.66651 17.333H13.1998V17.1663C13.1867 16.773 13.2316 16.3798 13.3332 15.9996H9.44651ZM6.66651 18.9196C6.33687 18.9196 6.01464 18.8219 5.74056 18.6388C5.46648 18.4556 5.25285 18.1953 5.12671 17.8908C5.00056 17.5862 4.96756 17.2511 5.03187 16.9278C5.09617 16.6045 5.25491 16.3075 5.488 16.0745C5.72108 15.8414 6.01806 15.6826 6.34136 15.6183C6.66466 15.554 6.99977 15.587 7.30431 15.7132C7.60886 15.8393 7.86916 16.0529 8.05229 16.327C8.23543 16.6011 8.33318 16.9233 8.33318 17.253C8.33318 17.695 8.15758 18.1189 7.84502 18.4315C7.53246 18.744 7.10854 18.9196 6.66651 18.9196Z" fill="#FFA438"/>
</svg>
