<svg width="24" height="24" viewBox="0 0 24 24" fill="none" xmlns="http://www.w3.org/2000/svg">
<path d="M19.5 15H15V13.5H19.5V15Z" fill="#FFA438"/>
<path d="M22.5 21H18V19.5H22.5V21Z" fill="#FFA438"/>
<path d="M21 18H16.5V16.5H21V18Z" fill="#FFA438"/>
<path d="M12.7522 15C12.7469 14.3672 12.5781 13.7464 12.2622 13.1981C11.9463 12.6497 11.494 12.1923 10.9492 11.8702L16.4999 2.25L15.2024 1.5L9.51967 11.3445C8.82225 11.1887 8.09689 11.2102 7.40994 11.4072C6.72299 11.6041 6.09638 11.9701 5.58742 12.4718C2.77942 15.18 2.99692 21.5115 3.00742 21.78C3.01517 21.9737 3.0976 22.1568 3.23742 22.291C3.37724 22.4253 3.5636 22.5002 3.75742 22.5H15.0007C15.1581 22.5 15.3115 22.4505 15.4392 22.3584C15.5669 22.2664 15.6624 22.1365 15.7122 21.9872C15.762 21.8378 15.7635 21.6766 15.7166 21.5264C15.6696 21.3761 15.5766 21.2444 15.4507 21.15C12.7957 19.158 12.7522 15.0405 12.7522 15ZM8.94742 12.7477C9.5477 12.7543 10.1223 12.9921 10.5517 13.4116C10.9812 13.8311 11.2323 14.4 11.2529 15C11.2529 15.0285 11.2544 15.156 11.2657 15.3517L6.84067 13.3837C7.13215 13.1434 7.46851 12.9634 7.83018 12.8542C8.19186 12.745 8.57163 12.7088 8.94742 12.7477ZM11.5874 21C10.9879 20.3896 10.6058 19.599 10.4999 18.75H8.99992C9.05364 19.5482 9.30297 20.3209 9.72592 21H8.05867C7.75023 20.0267 7.56258 19.0191 7.49992 18H5.99992C6.04829 19.0161 6.21568 20.0229 6.49867 21H4.49992C4.52317 19.623 4.71742 16.581 5.85217 14.5853L11.5019 17.0978C11.7734 18.5072 12.3521 19.8396 13.1969 21H11.5874Z" fill="#FFA438"/>
</svg>
