<svg width="24" height="24" viewBox="0 0 24 24" fill="none" xmlns="http://www.w3.org/2000/svg">
<path d="M18.3999 8.8001H15.4749V7.2001C15.4749 6.3201 14.7549 5.6001 13.8749 5.6001H10.0311C9.15113 5.6001 8.43113 6.3201 8.43113 7.2001V8.8001H5.59988C4.71988 8.8001 3.99988 9.5201 3.99988 10.4001V19.25C3.99988 19.8023 4.44759 20.25 4.99988 20.25H18.9999C19.5522 20.25 19.9999 19.8023 19.9999 19.25V10.4001C19.9999 9.5201 19.2799 8.8001 18.3999 8.8001ZM9.59988 7.78125C9.59988 7.22896 10.0476 6.78125 10.5999 6.78125H13.3999C13.9522 6.78125 14.3999 7.22897 14.3999 7.78125V8.8001H9.59988V7.78125ZM18.7811 17.9062C18.7811 18.4585 18.3334 18.9062 17.7811 18.9062H6.21863C5.66634 18.9062 5.21863 18.4585 5.21863 17.9062V14.4001H7.19988V14.7001C7.19988 14.9762 7.42374 15.2001 7.69988 15.2001H8.29988C8.57602 15.2001 8.79988 14.9762 8.79988 14.7001V14.4001H15.1999V14.7001C15.1999 14.9762 15.4237 15.2001 15.6999 15.2001H16.2999C16.576 15.2001 16.7999 14.9762 16.7999 14.7001V14.4001H18.7811V17.9062ZM16.7999 12.8001V12.5001C16.7999 12.224 16.576 12.0001 16.2999 12.0001H15.6999C15.4237 12.0001 15.1999 12.224 15.1999 12.5001V12.8001H8.79988V12.5001C8.79988 12.224 8.57602 12.0001 8.29988 12.0001H7.69988C7.42374 12.0001 7.19988 12.224 7.19988 12.5001V12.8001H5.21863V11.0313C5.21863 10.479 5.66634 10.0312 6.21863 10.0312H17.7811C18.3334 10.0312 18.7811 10.479 18.7811 11.0312V12.8001H16.7999Z" fill="#FFA438"/>
</svg>
