<svg width="24" height="24" viewBox="0 0 24 24" fill="none" xmlns="http://www.w3.org/2000/svg">
<path fill-rule="evenodd" clip-rule="evenodd" d="M19.0454 5.10441L16.0907 5.95795L18.0585 10.905C19.2443 10.6258 20.4963 10.7915 21.5595 11.3684C22.6228 11.9452 23.4173 12.8899 23.7815 14.0101C24.1457 15.1303 24.0521 16.3418 23.5197 17.398C22.9874 18.4541 22.0563 19.2756 20.9161 19.6951C19.7759 20.1147 18.5122 20.1007 17.3823 19.6562C16.2524 19.2116 15.3412 18.3698 14.8342 17.3022C14.3272 16.2345 14.2625 15.0213 14.6533 13.9094C15.0441 12.7975 15.8611 11.8706 16.9378 11.3174L15.9491 8.83173L12.5402 15.6381C12.491 15.7359 12.4142 15.8184 12.3184 15.876C12.2227 15.9337 12.112 15.9641 11.999 15.964H9.562C9.408 17.1274 8.79894 18.1908 7.85861 18.938C6.91828 19.6852 5.71724 20.0602 4.49961 19.9868C3.28197 19.9134 2.13912 19.397 1.30332 18.5426C0.467526 17.6883 0.00151368 16.56 1.3324e-06 15.3873C-0.000908297 14.213 0.463965 13.0827 1.2999 12.2265C2.13583 11.3703 3.27992 10.8527 4.49905 10.7792C5.71817 10.7056 6.92059 11.0817 7.8613 11.8307C8.80201 12.5798 9.41022 13.6454 9.562 14.8105H11.0619L8.13412 6.9303C8.11104 6.8681 8.09927 6.80255 8.09932 6.73652H7.1994C7.04028 6.73652 6.88768 6.67576 6.77517 6.5676C6.66266 6.45945 6.59945 6.31276 6.59945 6.1598C6.59945 6.00685 6.66266 5.86016 6.77517 5.752C6.88768 5.64385 7.04028 5.58309 7.1994 5.58309H9.89917C10.0583 5.58309 10.2109 5.64385 10.3234 5.752C10.4359 5.86016 10.4991 6.00685 10.4991 6.1598C10.4991 6.31276 10.4359 6.45945 10.3234 6.5676C10.2109 6.67576 10.0583 6.73652 9.89917 6.73652H9.33642L10.4415 9.71064L15.3173 7.24403L14.7384 5.78897C14.7089 5.71488 14.6957 5.63573 14.6994 5.55649C14.7032 5.47725 14.724 5.39961 14.7604 5.32843C14.7969 5.25725 14.8482 5.19406 14.9112 5.14282C14.9742 5.09157 15.0475 5.05336 15.1265 5.03059L18.7004 4L19.0454 5.10441ZM10.8489 10.8081L12.032 13.9916L14.5698 8.92573L10.8489 10.8081ZM18.638 15.5931L17.3703 12.4056C16.593 12.8465 16.0163 13.552 15.7545 14.3824C15.4927 15.2127 15.565 16.1073 15.957 16.8888C16.3491 17.6703 17.0322 18.2818 17.8711 18.602C18.7099 18.9221 19.6433 18.9277 20.4863 18.6176C21.3292 18.3074 22.0202 17.7042 22.4223 16.9274C22.8244 16.1506 22.9082 15.257 22.6572 14.4236C22.4062 13.5902 21.8386 12.8778 21.067 12.4277C20.2954 11.9776 19.376 11.8225 18.4911 11.9933L19.7587 15.1814C19.813 15.3237 19.8068 15.4808 19.7414 15.6187C19.6761 15.7567 19.5569 15.8643 19.4096 15.9184C19.2623 15.9726 19.0988 15.9688 18.9544 15.9079C18.81 15.847 18.6964 15.734 18.638 15.5931ZM8.3495 14.8105H4.7996C4.64048 14.8105 4.48788 14.8713 4.37537 14.9795C4.26286 15.0876 4.19965 15.2343 4.19965 15.3873C4.19965 15.5402 4.26286 15.6869 4.37537 15.7951C4.48788 15.9032 4.64048 15.964 4.7996 15.964H8.3495C8.19667 16.8176 7.71649 17.585 7.00376 18.1149C6.29103 18.6448 5.39754 18.8986 4.49968 18.8262C3.60181 18.7537 2.76481 18.3604 2.15391 17.7237C1.54302 17.0871 1.20261 16.2534 1.1999 15.3873C1.19908 14.5191 1.53779 13.6823 2.14883 13.043C2.75987 12.4037 3.5986 12.0085 4.49859 11.9359C5.39859 11.8633 6.29409 12.1186 7.00742 12.6511C7.72076 13.1836 8.1998 13.9544 8.3495 14.8105Z" fill="#FFA438"/>
</svg>
