<svg width="24" height="24" viewBox="0 0 24 24" fill="none" xmlns="http://www.w3.org/2000/svg">
<path fill-rule="evenodd" clip-rule="evenodd" d="M12.925 14.5273C13.3715 13.9303 14.1028 13.4399 15.1529 13.4399C16.2487 13.4399 16.9665 14.0291 17.3798 14.6355C17.5822 14.9326 17.7177 15.2396 17.8034 15.5015C17.8845 15.7494 17.9372 16.0069 17.9372 16.2107V19.8995H16.4372V16.2107C16.4372 16.2135 16.437 16.212 16.4362 16.2066C16.4332 16.1851 16.4213 16.1009 16.3778 15.9679C16.3278 15.8154 16.2497 15.6409 16.1402 15.4803C15.9297 15.1712 15.6303 14.9399 15.1529 14.9399C14.63 14.9399 14.3237 15.1616 14.1261 15.4258C13.9028 15.7243 13.828 16.0712 13.828 16.2107V19.8995H12.328V16.2107C12.328 15.7534 12.5041 15.09 12.925 14.5273Z" fill="#FFA438"/>
<path fill-rule="evenodd" clip-rule="evenodd" d="M15.0343 8.5C14.4124 8.5 13.9083 9.00415 13.9083 9.62606C13.9083 10.248 14.4124 10.7521 15.0343 10.7521C15.6562 10.7521 16.1604 10.248 16.1604 9.62606C16.1604 9.00415 15.6562 8.5 15.0343 8.5ZM12.4083 9.62606C12.4083 8.17573 13.584 7 15.0343 7C16.4847 7 17.6604 8.17573 17.6604 9.62606C17.6604 11.0764 16.4847 12.2521 15.0343 12.2521C13.584 12.2521 12.4083 11.0764 12.4083 9.62606Z" fill="#FFA438"/>
<line x1="2.65826" y1="20.25" x2="22.1583" y2="20.25" stroke="#FFA438" stroke-width="1.5" stroke-linecap="round"/>
<line x1="3.375" y1="20.25" x2="3.375" y2="13.75" stroke="#FFA438" stroke-width="1.5" stroke-linecap="round"/>
<line x1="9.375" y1="20.25" x2="9.375" y2="6.75" stroke="#FFA438" stroke-width="1.5" stroke-linecap="round"/>
<line x1="20.375" y1="20.25" x2="20.375" y2="6.75" stroke="#FFA438" stroke-width="1.5" stroke-linecap="round"/>
<line x1="15.375" y1="4.25" x2="15.375" y2="2.75" stroke="#FFA438" stroke-width="1.5" stroke-linecap="round"/>
<line x1="8.5639" y1="7.03441" x2="15.1594" y2="4.5611" stroke="#FFA438" stroke-width="1.5" stroke-linecap="round"/>
<line x1="2.5639" y1="14.0344" x2="9.15941" y2="11.5611" stroke="#FFA438" stroke-width="1.5" stroke-linecap="round"/>
<line x1="0.75" y1="-0.75" x2="7.794" y2="-0.75" transform="matrix(-0.936329 -0.351123 -0.351123 0.936329 22.125 8)" stroke="#FFA438" stroke-width="1.5" stroke-linecap="round"/>
</svg>
