<svg width="24" height="24" viewBox="0 0 24 24" fill="none" xmlns="http://www.w3.org/2000/svg">
<path d="M14.6603 10.0802C16.2203 10.0802 17.1803 7.80022 17.1803 6.36022C17.1803 5.16022 16.5803 3.72022 15.3803 3.72022C13.8203 3.72022 12.8603 6.00022 12.8603 7.44022C12.8603 8.64022 13.4603 10.0802 14.6603 10.0802ZM9.1669 10.2002C10.3669 10.2002 10.9669 8.76022 10.9669 7.56022C10.9669 6.00022 10.0069 3.72022 8.4469 3.72022C7.2469 3.72022 6.6469 5.16022 6.6469 6.36022C6.5269 7.92022 7.4869 10.2002 9.1669 10.2002ZM19.8203 8.88022C18.2603 8.88022 17.1803 11.0402 17.1803 12.6002C17.1803 13.6802 17.6603 14.7602 18.7403 14.7602C20.3003 14.7602 21.3803 12.6002 21.3803 11.0402C21.3803 9.96021 20.7803 8.88022 19.8203 8.88022ZM6.6469 12.6002C6.6469 11.0402 5.4469 8.88022 4.0069 8.88022C2.9269 8.88022 2.4469 9.96021 2.4469 11.0402C2.4469 12.6002 3.6469 14.7602 5.0869 14.7602C6.1669 14.7602 6.6469 13.6802 6.6469 12.6002ZM12 12.3602C9.60003 12.3602 6.36003 16.2002 6.36003 18.8402C6.36003 20.0402 7.20003 20.4002 8.16003 20.4002C9.60003 20.4002 10.68 19.4402 12 19.4402C13.2 19.4402 14.28 20.4002 15.6 20.4002C16.56 20.4002 17.64 20.1602 17.64 18.8402C17.64 16.2002 14.4 12.3602 12 12.3602Z" stroke="#FFA438" stroke-width="1.5"/>
</svg>
