<svg width="24" height="24" viewBox="0 0 24 24" fill="none" xmlns="http://www.w3.org/2000/svg">
<path d="M13.3125 2.10986L12.7028 2.27336C12.7028 2.27336 9.5805 3.09386 7.43025 4.12511C7.4235 4.12811 7.41225 4.12211 7.40625 4.12511C5.27325 5.07761 2.57775 6.86711 2.57775 6.86711L2.0625 7.21886L2.3205 7.80461C2.3205 7.80461 4.3155 12.2754 5.22675 14.2501C5.22975 14.2591 5.247 14.2651 5.25 14.2734C5.53425 14.9064 6.0525 15.2611 6.60975 15.5394C6.67125 16.0636 6.89025 16.5849 7.14825 17.0626C7.5645 17.8389 8.14125 18.5776 8.742 19.2421C9.9435 20.5726 11.2267 21.5859 11.2267 21.5859L11.4608 21.7734L11.7653 21.7501C11.7653 21.7501 13.3913 21.6181 15.1403 21.1876C16.0163 20.9739 16.9365 20.6866 17.7188 20.2734C18.501 19.8609 19.2157 19.3126 19.4767 18.4456C20.1472 16.2069 21.7267 11.1796 21.7267 11.1796L21.9142 10.5706L21.3278 10.2894C21.3278 10.2894 18.3953 8.82161 16.008 8.01611C15.0262 5.83361 13.5705 2.67161 13.5705 2.67161L13.3125 2.10986ZM12.492 3.93761C12.6975 4.37711 13.4677 6.03236 14.133 7.47686C11.991 6.96386 9.77325 6.67961 9.77325 6.67961L9.14025 6.60911L8.95275 7.19561L8.64825 8.15636L6.32775 9.72686L7.17225 10.9689L7.96875 10.4296C7.53225 11.8471 7.27725 12.6886 6.89025 13.9689C6.753 13.8661 6.65325 13.7664 6.60975 13.6644V13.6404C5.8005 11.8914 4.29225 8.56061 3.96075 7.82786C4.47375 7.49411 6.34875 6.23486 8.03925 5.48486C9.71175 4.67861 11.883 4.10486 12.492 3.93761ZM10.1955 8.27336C11.004 8.38811 13.4385 8.72786 15.3045 9.32786C17.2823 9.96686 19.515 11.0859 20.0858 11.3679C19.881 12.0264 18.9375 15.0234 18.258 17.2501L18.0233 18.0001C17.9445 18.2581 17.619 18.6181 17.016 18.9376C16.4122 19.2571 15.5918 19.5376 14.7885 19.7349C13.3275 20.0949 12.1702 20.1796 11.9295 20.2036C11.727 20.0364 10.86 19.3336 9.867 18.2349C9.3165 17.6251 8.78325 16.9366 8.46075 16.3359C8.13825 15.7359 8.0535 15.2634 8.133 15.0001C8.748 12.9526 9.96375 9.02036 10.1955 8.27336ZM10.8045 11.8831L10.359 13.3126L13.1955 14.2269L13.6403 12.7734L10.8045 11.8831ZM14.7892 13.0786L14.3205 14.5081L17.0858 15.4216L17.5545 13.9921L14.7892 13.0786ZM11.7188 14.9761L10.3125 15.4921C10.3125 15.4921 10.9365 17.2149 12.7267 17.7189V17.7421C12.7417 17.7481 12.759 17.7361 12.7733 17.7421C14.5223 18.2964 16.0312 17.1796 16.0312 17.1796L15.1642 15.9609C15.1642 15.9609 14.1503 16.6231 13.2188 16.3126H13.1955L13.1715 16.2894C12.1553 16.0224 11.7188 14.9769 11.7188 14.9769V14.9761Z" fill="#FFA438"/>
</svg>
