<svg width="24" height="24" viewBox="0 0 24 24" fill="none" xmlns="http://www.w3.org/2000/svg">
<path d="M19.3124 19.3211H4.68738C4.22156 19.3211 3.82385 19.1561 3.49426 18.8261C3.16467 18.4961 2.99988 18.0979 2.99988 17.6315V6.36881C2.99988 5.90241 3.16467 5.5042 3.49426 5.1742C3.82385 4.8442 4.22156 4.6792 4.68738 4.6792H19.3124C19.7782 4.6792 20.1759 4.8442 20.5055 5.1742C20.8351 5.5042 20.9999 5.90241 20.9999 6.36881V17.6315C20.9999 18.0979 20.8351 18.4961 20.5055 18.8261C20.1759 19.1561 19.7782 19.3211 19.3124 19.3211ZM13.3995 5.524C13.1666 5.524 12.9689 5.6054 12.8063 5.76821C12.6437 5.93101 12.5624 6.12901 12.5624 6.36221C12.5624 6.59541 12.6437 6.79561 12.8063 6.96281C12.9689 7.13001 13.1688 7.21361 13.4061 7.21361C13.6434 7.21361 13.8434 7.13001 14.006 6.96281C14.1686 6.79561 14.2499 6.59541 14.2499 6.36221C14.2499 6.12901 14.1664 5.93101 13.9994 5.76821C13.8324 5.6054 13.6324 5.524 13.3995 5.524ZM15.9308 5.524C15.6979 5.524 15.5001 5.6054 15.3375 5.76821C15.1749 5.93101 15.0936 6.12901 15.0936 6.36221C15.0936 6.59541 15.1749 6.79561 15.3375 6.96281C15.5001 7.13001 15.6979 7.21361 15.9308 7.21361C16.1637 7.21361 16.3636 7.13001 16.5306 6.96281C16.6976 6.79561 16.7811 6.59541 16.7811 6.36221C16.7811 6.12901 16.6976 5.93101 16.5306 5.76821C16.3636 5.6054 16.1637 5.524 15.9308 5.524ZM18.4686 5.524C18.2313 5.524 18.0314 5.6054 17.8688 5.76821C17.7062 5.93101 17.6249 6.12901 17.6249 6.36221C17.6249 6.59541 17.7062 6.79561 17.8688 6.96281C18.0314 7.13001 18.2313 7.21361 18.4686 7.21361C18.7059 7.21361 18.9059 7.13001 19.0685 6.96281C19.2311 6.79561 19.3124 6.59541 19.3124 6.36221C19.3124 6.12901 19.2311 5.93101 19.0685 5.76821C18.9059 5.6054 18.7059 5.524 18.4686 5.524ZM19.3124 8.90322C19.3124 8.66562 19.2289 8.46542 19.0619 8.30262C18.8949 8.13982 18.6971 8.05842 18.4686 8.05842H5.53113C5.29382 8.05842 5.09387 8.13982 4.93127 8.30262C4.76868 8.46542 4.68738 8.66562 4.68738 8.90322V16.7867C4.68738 17.0243 4.76868 17.2245 4.93127 17.3873C5.09387 17.5501 5.29382 17.6315 5.53113 17.6315H18.4686C18.6971 17.6315 18.8949 17.5501 19.0619 17.3873C19.2289 17.2245 19.3124 17.0243 19.3124 16.7867V8.90322ZM11.9867 14.6717C11.9691 14.7685 11.9296 14.8477 11.868 14.9093L11.2748 15.5033C11.1869 15.5913 11.077 15.6309 10.9452 15.6221C10.8134 15.6309 10.7035 15.5913 10.6156 15.5033L10.0223 14.9093C9.97839 14.8653 9.94324 14.8169 9.91687 14.7641L7.89978 12.7576C7.82068 12.6784 7.78113 12.5794 7.78113 12.4606C7.78113 12.3418 7.82068 12.2428 7.89978 12.1636L8.50623 11.5564C8.58533 11.4772 8.6842 11.4376 8.80286 11.4376C8.92151 11.4376 9.02039 11.4772 9.09949 11.5564L10.9056 13.3384L14.8871 9.02202C14.975 8.94282 15.0782 8.90322 15.1969 8.90322C15.3156 8.90322 15.4144 8.94282 15.4935 9.02202L16.1 9.62923C16.1791 9.70843 16.2186 9.80743 16.2186 9.92623C16.2186 10.045 16.1791 10.144 16.1 10.2232L11.9867 14.6717Z" fill="#FFA438"/>
</svg>
