<svg width="24" height="24" viewBox="0 0 24 24" fill="none" xmlns="http://www.w3.org/2000/svg">
<path d="M7.54004 12.731V18.3058H13.1149L11.9523 17.1432H8.70268V13.8936L7.54004 12.731Z" fill="#FFA438" stroke="#FFA438" stroke-width="0.2"/>
<path d="M22.5778 21.3809L20.9094 19.6893V21.2123H4.63238V18.7999H5.79502V17.8697H4.63238V14.004H5.79502V13.0738H4.63238V9.35338H5.79502V8.42327H4.63238V5.17368L13.8987 14.3876V12.7483L4.4638 3.35995C4.38249 3.27797 4.2786 3.22206 4.16539 3.19935C4.05218 3.17663 3.93477 3.18815 3.82813 3.23243C3.72149 3.2767 3.63045 3.35174 3.56662 3.44796C3.50279 3.54418 3.46906 3.65723 3.46974 3.77269V21.7937C3.46974 21.9478 3.53098 22.0957 3.64 22.2047C3.74902 22.3137 3.89688 22.375 4.05106 22.375H22.165C22.2805 22.3757 22.3936 22.3419 22.4898 22.2781C22.586 22.2143 22.661 22.1232 22.7053 22.0166C22.7496 21.91 22.7611 21.7925 22.7384 21.6793C22.7157 21.5661 22.6598 21.4622 22.5778 21.3809Z" fill="#FFA438" stroke="#FFA438" stroke-width="0.2"/>
<path d="M15.9997 19.9998H18.6664C19.02 19.9998 19.3591 19.8593 19.6092 19.6093C19.8592 19.3592 19.9997 19.0201 19.9997 18.6664V5.79978L18.4664 2.97978C18.3478 2.77433 18.1765 2.60424 17.9703 2.48705C17.764 2.36986 17.5302 2.30982 17.293 2.31312C17.0505 2.31504 16.813 2.38311 16.6063 2.50998C16.3995 2.63685 16.2313 2.81772 16.1197 3.03312L14.6664 5.81312V18.6664C14.6664 19.0201 14.8069 19.3592 15.0569 19.6093C15.307 19.8593 15.6461 19.9998 15.9997 19.9998ZM15.9997 6.13312L17.293 3.61978L18.6664 6.13978V15.9998H15.9997V6.13312ZM15.9997 17.0864H18.6664V18.7131H15.9997V17.0864Z" fill="#FFA438"/>
</svg>
