<svg width="24" height="24" viewBox="0 0 24 24" fill="none" xmlns="http://www.w3.org/2000/svg">
<path d="M3 12H12V13.5H3V12Z" fill="#FFA438"/>
<path d="M1.5 8.25H9V9.75H1.5V8.25Z" fill="#FFA438"/>
<path d="M22.4389 12.4545L20.1889 7.2045C20.1311 7.06956 20.035 6.95455 19.9125 6.87375C19.79 6.79295 19.6464 6.74992 19.4996 6.75H17.2496V5.25C17.2496 5.05109 17.1706 4.86032 17.03 4.71967C16.8893 4.57902 16.6986 4.5 16.4996 4.5H4.49964V6H15.7496V15.417C15.4079 15.6154 15.1088 15.8796 14.8696 16.1942C14.6305 16.5088 14.4559 16.8676 14.3561 17.25H9.64314C9.4606 16.543 9.02647 15.9269 8.42213 15.517C7.8178 15.1072 7.08475 14.9319 6.36039 15.0239C5.63603 15.1159 4.97009 15.4689 4.4874 16.0168C4.00471 16.5647 3.7384 17.2698 3.7384 18C3.7384 18.7302 4.00471 19.4353 4.4874 19.9832C4.97009 20.5311 5.63603 20.8841 6.36039 20.9761C7.08475 21.0681 7.8178 20.8928 8.42213 20.483C9.02647 20.0731 9.4606 19.457 9.64314 18.75H14.3561C14.5193 19.3937 14.8924 19.9646 15.4165 20.3724C15.9405 20.7802 16.5856 21.0016 17.2496 21.0016C17.9137 21.0016 18.5587 20.7802 19.0828 20.3724C19.6069 19.9646 19.98 19.3937 20.1431 18.75H21.7496C21.9486 18.75 22.1393 18.671 22.28 18.5303C22.4206 18.3897 22.4996 18.1989 22.4996 18V12.75C22.4997 12.6484 22.479 12.5479 22.4389 12.4545ZM6.74964 19.5C6.45297 19.5 6.16296 19.412 5.91629 19.2472C5.66961 19.0824 5.47735 18.8481 5.36382 18.574C5.25029 18.2999 5.22058 17.9983 5.27846 17.7074C5.33634 17.4164 5.4792 17.1491 5.68898 16.9393C5.89876 16.7296 6.16603 16.5867 6.45701 16.5288C6.74798 16.4709 7.04958 16.5006 7.32367 16.6142C7.59775 16.7277 7.83202 16.92 7.99685 17.1666C8.16167 17.4133 8.24964 17.7033 8.24964 18C8.24924 18.3977 8.09108 18.779 7.80986 19.0602C7.52864 19.3414 7.14734 19.4996 6.74964 19.5ZM17.2496 8.25H19.0046L20.6126 12H17.2496V8.25ZM17.2496 19.5C16.953 19.5 16.663 19.412 16.4163 19.2472C16.1696 19.0824 15.9774 18.8481 15.8638 18.574C15.7503 18.2999 15.7206 17.9983 15.7785 17.7074C15.8363 17.4164 15.9792 17.1491 16.189 16.9393C16.3988 16.7296 16.666 16.5867 16.957 16.5288C17.248 16.4709 17.5496 16.5006 17.8237 16.6142C18.0978 16.7277 18.332 16.92 18.4968 17.1666C18.6617 17.4133 18.7496 17.7033 18.7496 18C18.7492 18.3977 18.5911 18.779 18.3099 19.0602C18.0286 19.3414 17.6473 19.4996 17.2496 19.5ZM20.9996 17.25H20.1431C19.9779 16.6076 19.6042 16.0381 19.0806 15.6309C18.5569 15.2238 17.913 15.0018 17.2496 15V13.5H20.9996V17.25Z" fill="#FFA438"/>
</svg>
