<svg width="24" height="24" viewBox="0 0 24 24" fill="none" xmlns="http://www.w3.org/2000/svg">
<path d="M3.59378 11.4106C3.5949 10.422 3.9881 9.47426 4.68711 8.77525C5.38612 8.07624 6.33387 7.68304 7.32242 7.68192H10.188C10.2242 7.6817 13.8486 7.62613 17.2994 4.73185C17.5085 4.55629 17.7633 4.44406 18.0339 4.40833C18.3046 4.3726 18.5798 4.41487 18.8272 4.53016C19.0747 4.64545 19.2841 4.82897 19.4308 5.05917C19.5776 5.28936 19.6555 5.55666 19.6556 5.82965V16.9915C19.6573 17.2646 19.5801 17.5325 19.4334 17.7629C19.2866 17.9933 19.0765 18.1765 18.8283 18.2905C18.6374 18.3802 18.4291 18.4268 18.2182 18.4272C17.8816 18.4265 17.5562 18.3068 17.2994 18.0893C15.6656 16.7128 13.7158 15.7633 11.6247 15.3258V17.3661C11.6256 17.6326 11.5518 17.894 11.4117 18.1207C11.2716 18.3474 11.0708 18.5303 10.832 18.6487L9.49414 19.3177C9.30205 19.4138 9.09085 19.4654 8.87613 19.4689C8.6614 19.4724 8.44863 19.4276 8.25353 19.3379C8.05842 19.2481 7.88597 19.1157 7.74889 18.9504C7.61181 18.7851 7.5136 18.5911 7.46153 18.3828L6.63442 15.0745C5.7804 14.9131 5.00944 14.4588 4.4544 13.79C3.89935 13.1212 3.595 12.2797 3.59378 11.4106ZM17.9348 16.3917V6.42946C16.0908 7.86711 13.9255 8.83572 11.6247 9.25211V13.569C13.9255 13.9854 16.0908 14.954 17.9348 16.3917ZM9.04441 17.6185L9.90379 17.1888V15.1392H8.42452L9.04441 17.6185ZM7.32242 13.4183H9.90379V9.40283H7.32242C6.78994 9.40283 6.27926 9.61436 5.90274 9.99088C5.52622 10.3674 5.31469 10.8781 5.31469 11.4106C5.31469 11.943 5.52622 12.4537 5.90274 12.8302C6.27926 13.2068 6.78994 13.4183 7.32242 13.4183Z" fill="#FFA438"/>
</svg>
