<svg width="24" height="25" viewBox="0 0 24 25" fill="none" xmlns="http://www.w3.org/2000/svg">
<path d="M11.4406 8.34604L12 8.97256L12.5594 8.34604C13.2895 7.52847 14.4221 7.00195 15.6 7.00195C17.6837 7.00195 19.25 8.54561 19.25 10.4481C19.25 11.6319 18.6988 12.7709 17.5557 14.1036C16.4053 15.4449 14.745 16.8826 12.6694 18.6776L12.6683 18.6785L11.9981 19.2604L11.3312 18.6857C11.3309 18.6855 11.3306 18.6853 11.3304 18.685C9.25495 16.8864 7.59488 15.447 6.44446 14.1048C5.30124 12.7709 4.75 11.6319 4.75 10.4481C4.75 8.54561 6.3163 7.00195 8.4 7.00195C9.57788 7.00195 10.7105 7.52847 11.4406 8.34604Z" stroke="#606483" stroke-width="1.5"/>
</svg>
