<svg width="14" height="15" viewBox="0 0 14 15" fill="none" xmlns="http://www.w3.org/2000/svg">
<path d="M3.24105 1.63115C3.24105 1.63115 4.00147 1.11185 4.53514 1.16863C5.25473 1.24519 5.69877 1.66414 6.2267 2.43958C6.67628 3.09993 6.95633 4.10275 6.83754 4.55049C6.61535 5.38798 5.11751 5.95202 5.11751 5.95202C4.98836 6.11443 5.55489 7.19259 6.2267 8.05504C6.83131 8.83109 7.57091 9.47363 7.76893 9.46798L7.80317 9.46322L7.84425 9.44939C7.84425 9.44939 8.71753 8.57439 9.70755 8.22451C10.1871 8.05504 10.7981 8.6189 11.3562 9.20108C12.3127 10.199 12.5255 10.3907 12.3127 11.246C12.1913 11.7338 11.8008 12.3463 11.8008 12.3463C11.4644 12.7671 11.0142 13.0825 10.5038 13.2549C9.99339 13.4274 9.44418 13.4496 8.92149 13.319C7.29469 12.9124 5.69781 11.6885 4.1201 9.66346C2.53843 7.63329 1.742 5.78193 1.74937 4.10275C1.75151 3.59444 1.89134 3.09621 2.15399 2.66102C2.41664 2.22582 2.7923 1.86992 3.24105 1.63115Z" fill="#7CC076"/>
</svg>
