<svg width="16" height="17" viewBox="0 0 16 17" fill="none" xmlns="http://www.w3.org/2000/svg">
<path d="M7.78187 14.5936H2.36377C2.08763 14.5936 1.86377 14.3698 1.86377 14.0936V2.33887C1.86377 2.06272 2.08763 1.83887 2.36377 1.83887H11.636C11.9121 1.83887 12.136 2.06272 12.136 2.33887V8.8186" stroke="#606483" stroke-linecap="round"/>
<path d="M2.36377 14.5936H7.78187H11.636C11.9121 14.5936 12.136 14.3698 12.136 14.0936V2.33887C12.136 2.06272 11.9121 1.83887 11.636 1.83887H2.36377C2.08763 1.83887 1.86377 2.06272 1.86377 2.33887V14.0936C1.86377 14.3698 2.08763 14.5936 2.36377 14.5936Z" fill="#606483"/>
<path fill-rule="evenodd" clip-rule="evenodd" d="M1.36377 2.33887C1.36377 1.78658 1.81149 1.33887 2.36377 1.33887H11.636C12.1883 1.33887 12.636 1.78658 12.636 2.33887V14.0936C12.636 14.6459 12.1883 15.0936 11.636 15.0936H2.36377C1.81149 15.0936 1.36377 14.6459 1.36377 14.0936V2.33887ZM11.636 2.33887L2.36377 2.33887V14.0936H11.636L11.636 2.33887Z" fill="#606483"/>
<path fill-rule="evenodd" clip-rule="evenodd" d="M3.85095 4.93237C3.85095 4.65623 4.07481 4.43237 4.35095 4.43237H9.64883C9.92497 4.43237 10.1488 4.65623 10.1488 4.93237C10.1488 5.20852 9.92497 5.43237 9.64883 5.43237H4.35095C4.07481 5.43237 3.85095 5.20852 3.85095 4.93237Z" fill="white"/>
<path fill-rule="evenodd" clip-rule="evenodd" d="M3.85095 6.93237C3.85095 6.65623 4.07481 6.43237 4.35095 6.43237H9.64883C9.92497 6.43237 10.1488 6.65623 10.1488 6.93237C10.1488 7.20852 9.92497 7.43237 9.64883 7.43237H4.35095C4.07481 7.43237 3.85095 7.20852 3.85095 6.93237Z" fill="white"/>
<path fill-rule="evenodd" clip-rule="evenodd" d="M3.85095 8.93237C3.85095 8.65623 4.07481 8.43237 4.35095 8.43237H6.81528C7.09142 8.43237 7.31528 8.65623 7.31528 8.93237C7.31528 9.20852 7.09142 9.43237 6.81528 9.43237H4.35095C4.07481 9.43237 3.85095 9.20852 3.85095 8.93237Z" fill="white"/>
<path fill-rule="evenodd" clip-rule="evenodd" d="M14.3962 8.20893C15.0719 8.68814 15.2313 9.62443 14.7521 10.3002L12.0436 14.1195C11.3505 15.0968 9.95958 15.2497 9.07086 14.4462L7.23037 12.7822C6.61586 12.2266 6.56809 11.278 7.12367 10.6635C7.67925 10.049 8.6278 10.0013 9.24231 10.5568L10.2477 11.4658L12.3049 8.5648C12.7841 7.88905 13.7204 7.72972 14.3962 8.20893Z" fill="#606483"/>
<path fill-rule="evenodd" clip-rule="evenodd" d="M13.8177 9.02456C14.043 9.1843 14.0961 9.49639 13.9363 9.72164L11.2278 13.541C10.8813 14.0296 10.1859 14.1061 9.74149 13.7043L7.90101 12.0403C7.69617 11.8551 7.68025 11.5389 7.86544 11.3341C8.05064 11.1293 8.36682 11.1133 8.57165 11.2985L10.4121 12.9625L13.1206 9.14318C13.2804 8.91793 13.5925 8.86482 13.8177 9.02456Z" fill="white"/>
</svg>
