<svg width="16" height="17" viewBox="0 0 16 17" fill="none" xmlns="http://www.w3.org/2000/svg">
<path d="M12.634 5.00649H10.5272V4.60082C10.5268 4.27815 10.3935 3.96881 10.1566 3.74065C9.91968 3.51249 9.59844 3.38415 9.26336 3.38379H6.73569C6.40061 3.38415 6.07937 3.51249 5.84243 3.74065C5.6055 3.96881 5.47222 4.27815 5.47185 4.60082V5.00649H3.36587C3.14249 5.00674 2.92833 5.09229 2.77037 5.2444C2.61242 5.39651 2.52357 5.60274 2.52332 5.81785V12.3087C2.52357 12.5238 2.61242 12.73 2.77037 12.8821C2.92833 13.0342 3.14249 13.1198 3.36587 13.12H12.634C12.8574 13.1198 13.0716 13.0342 13.2295 12.8821C13.3875 12.73 13.4763 12.5238 13.4766 12.3087V5.81785C13.4763 5.60274 13.3875 5.39651 13.2295 5.2444C13.0716 5.09229 12.8574 5.00674 12.634 5.00649ZM6.31441 7.03488C6.31441 7.14247 6.27002 7.24565 6.19102 7.32173C6.11201 7.39781 6.00486 7.44055 5.89313 7.44055C5.7814 7.44055 5.67424 7.39781 5.59524 7.32173C5.51623 7.24565 5.47185 7.14247 5.47185 7.03488V6.22352C5.47185 6.11593 5.51623 6.01275 5.59524 5.93667C5.67424 5.86059 5.7814 5.81785 5.89313 5.81785C6.00486 5.81785 6.11201 5.86059 6.19102 5.93667C6.27002 6.01275 6.31441 6.11593 6.31441 6.22352V7.03488ZM6.31441 4.60082C6.31455 4.49327 6.35898 4.39016 6.43795 4.31411C6.51693 4.23806 6.624 4.19528 6.73569 4.19514H9.26336C9.37505 4.19528 9.48212 4.23806 9.5611 4.31411C9.64007 4.39016 9.6845 4.49327 9.68464 4.60082V5.00649H6.31441V4.60082ZM10.5272 7.03488C10.5272 7.14247 10.4828 7.24565 10.4038 7.32173C10.3248 7.39781 10.2176 7.44055 10.1059 7.44055C9.99419 7.44055 9.88703 7.39781 9.80803 7.32173C9.72902 7.24565 9.68464 7.14247 9.68464 7.03488V6.22352C9.68464 6.11593 9.72902 6.01275 9.80803 5.93667C9.88703 5.86059 9.99419 5.81785 10.1059 5.81785C10.2176 5.81785 10.3248 5.86059 10.4038 5.93667C10.4828 6.01275 10.5272 6.11593 10.5272 6.22352V7.03488Z" fill="#FFA438"/>
</svg>
