<svg width="16" height="17" viewBox="0 0 16 17" fill="none" xmlns="http://www.w3.org/2000/svg">
<path d="M12.712 8.25776C12.8227 8.05784 12.9985 7.90187 13.2102 7.81581C13.4219 7.72975 13.6567 7.71879 13.8755 7.78476L14.234 7.89276L14.33 7.92476C14.627 8.03341 14.8889 8.22049 15.0881 8.46612C15.2872 8.71175 15.4161 9.00675 15.461 9.31976C15.6095 10.3538 15.2775 11.5628 14.477 12.9493C13.6785 14.3323 12.7995 15.2233 11.832 15.6133C11.5211 15.7385 11.1808 15.7719 10.8515 15.7094C10.5223 15.647 10.2178 15.4912 9.9745 15.2608L9.7035 15.0038L9.6425 14.9408C9.49179 14.7707 9.40348 14.5544 9.39212 14.3275C9.38076 14.1005 9.44702 13.8765 9.58 13.6923L10.2585 12.7523L10.304 12.6953C10.3993 12.5873 10.5237 12.509 10.6622 12.4698C10.8008 12.4306 10.9478 12.4322 11.0855 12.4743L12.111 12.7878L12.1375 12.7928H12.159C12.2815 12.7793 12.5305 12.5318 12.8365 12.0018C13.1765 11.4128 13.2465 11.0683 13.153 10.9793L12.6315 10.4933L12.565 10.4268C12.399 10.2468 12.2895 10.0221 12.2502 9.78048C12.2109 9.53885 12.2435 9.291 12.344 9.06776L12.675 8.33226L12.712 8.25776Z" fill="#2F93E1"/>
<path d="M4.5697 13.257H7.84922C8.40151 13.257 8.82788 12.7685 9.15352 12.3225C9.48639 11.8665 10.0175 11.5866 10.3561 11.295C11.3942 10.4011 9.95878 9.12744 8.58889 9.12744H6.5697C4.91285 9.12744 3.5697 10.4706 3.5697 12.1274V12.257C3.5697 12.8093 4.01742 13.257 4.5697 13.257Z" fill="#2F93E1"/>
<path fill-rule="evenodd" clip-rule="evenodd" d="M1.08997 4.11279C1.08997 3.00822 1.9854 2.11279 3.08997 2.11279H12.7458C13.8503 2.11279 14.7458 3.00822 14.7458 4.11279V6.22481H13.9458V4.11279C13.9458 3.45005 13.4085 2.91279 12.7458 2.91279H3.08997C2.42722 2.91279 1.88997 3.45005 1.88997 4.11279V11.2239C1.88997 11.8867 2.42722 12.4239 3.08997 12.4239H5.91928V13.2239H3.08997C1.9854 13.2239 1.08997 12.3285 1.08997 11.2239V4.11279Z" fill="#2F93E1"/>
<circle cx="7.13725" cy="6.21915" r="2.03263" fill="#2F93E1"/>
</svg>
