<svg width="16" height="17" viewBox="0 0 16 17" fill="none" xmlns="http://www.w3.org/2000/svg">
<path d="M14.2702 13.2778C14.2758 13.3863 14.2974 13.9887 14.107 14.3135C13.9539 14.5696 13.5189 14.6331 13.4206 14.6444C13.4071 14.6459 13.3938 14.6464 13.3803 14.6464H2.81827C2.80421 14.6464 2.79047 14.647 2.77643 14.6479C2.65827 14.6557 2.06693 14.6841 1.83669 14.4909C1.6991 14.3776 1.72682 13.6307 1.73141 13.5258C1.73178 13.5174 1.73198 13.5093 1.73198 13.5009V8.59326V7.93275C1.73198 7.71879 2.19149 7.29223 2.2226 7.2636L2.226 7.26046L6.56722 3.22249C7.33447 2.50883 8.52246 2.50834 9.29029 3.22136L13.7577 7.36981C13.7698 7.38105 13.7813 7.39285 13.792 7.40541C13.8483 7.47135 14.0386 7.70131 14.1615 7.93275C14.2693 8.13593 14.2693 8.41483 14.2693 8.41483V13.2438C14.2693 13.2551 14.2696 13.2664 14.2702 13.2778Z" fill="#41A996"/>
<path d="M1.83669 14.4909L5.48215 11.1591M1.83669 14.4909C2.06693 14.6841 2.65827 14.6557 2.77643 14.6479C2.79047 14.647 2.80421 14.6464 2.81827 14.6464H13.3803C13.3938 14.6464 13.4071 14.6459 13.4206 14.6444C13.5189 14.6331 13.9539 14.5696 14.107 14.3135M1.83669 14.4909C1.6991 14.3776 1.72682 13.6307 1.73141 13.5258C1.73178 13.5174 1.73198 13.5093 1.73198 13.5009V8.59326C1.73198 8.59326 1.73198 8.59326 1.73198 8.59326C1.73198 8.59326 1.73198 8.13256 1.73198 7.93275M14.107 14.3135C12.6761 13.0647 10.4315 11.1591 10.4315 11.1591M14.107 14.3135C14.2974 13.9887 14.2758 13.3863 14.2702 13.2778C14.2696 13.2664 14.2693 13.2551 14.2693 13.2438V8.41483C14.2693 8.41483 14.2693 8.41483 14.2693 8.41483C14.2693 8.41483 14.2693 8.13593 14.1615 7.93275M14.1615 7.93275L10.4315 11.1591M14.1615 7.93275C14.0386 7.70131 13.8483 7.47135 13.792 7.4054C13.7813 7.39285 13.7698 7.38105 13.7577 7.36981L9.29029 3.22136C8.52246 2.50834 7.33447 2.50883 6.56722 3.22249L2.226 7.26046C2.22484 7.26154 2.22377 7.26252 2.2226 7.2636C2.19149 7.29223 1.73198 7.71879 1.73198 7.93275M1.73198 7.93275L5.48215 11.1591M5.48215 11.1591L7.59165 9.19749C7.78195 9.02054 8.07608 9.01884 8.26839 9.1936L10.4315 11.1591" stroke="white" stroke-width="0.7"/>
</svg>
