<svg width="16" height="15" viewBox="0 0 16 15" fill="none" xmlns="http://www.w3.org/2000/svg">
<path d="M13.4444 13.252V2.80751C13.4444 2.39495 13.2806 1.99929 12.9888 1.70756C12.6971 1.41584 12.3014 1.25195 11.8889 1.25195H4.11111C3.69855 1.25195 3.30289 1.41584 3.01117 1.70756C2.71944 1.99929 2.55556 2.39495 2.55556 2.80751V13.252H13.4444ZM6.44444 13.252V11.3631C6.44444 11.1568 6.52639 10.959 6.67225 10.8131C6.81811 10.6672 7.01594 10.5853 7.22222 10.5853H8.77778C8.98406 10.5853 9.18189 10.6672 9.32775 10.8131C9.47361 10.959 9.55556 11.1568 9.55556 11.3631V13.252H6.44444ZM9.55556 13.252H6.44444H9.55556Z" fill="#FF5A50"/>
<path d="M13.4444 13.252V2.80751C13.4444 2.39495 13.2806 1.99929 12.9888 1.70756C12.6971 1.41584 12.3014 1.25195 11.8889 1.25195H4.11111C3.69855 1.25195 3.30289 1.41584 3.01117 1.70756C2.71944 1.99929 2.55556 2.39495 2.55556 2.80751V13.252M13.4444 13.252H2.55556M13.4444 13.252H15M13.4444 13.252H9.55556M2.55556 13.252H1M2.55556 13.252H6.44444M9.55556 13.252V11.3631C9.55556 11.1568 9.47361 10.959 9.32775 10.8131C9.18189 10.6672 8.98406 10.5853 8.77778 10.5853H7.22222C7.01594 10.5853 6.81811 10.6672 6.67225 10.8131C6.52639 10.959 6.44444 11.1568 6.44444 11.3631V13.252M9.55556 13.252H6.44444M5.66667 4.36306H6.44444M5.66667 7.47418H6.44444M9.55556 4.36306H10.3333M9.55556 7.47418H10.3333" stroke="white" stroke-width="1.5" stroke-linecap="round" stroke-linejoin="round"/>
<line x1="2.29395" y1="13.2344" x2="13.7314" y2="13.2344" stroke="#FF5A50" stroke-width="1.5" stroke-linecap="round"/>
</svg>
