<svg width="18" height="18" viewBox="0 0 18 18" fill="none" xmlns="http://www.w3.org/2000/svg">
<g opacity="0.8">
<path d="M0 2C0 0.89543 0.895431 0 2 0H16C17.1046 0 18 0.895431 18 2V16C18 17.1046 17.1046 18 16 18H2C0.89543 18 0 17.1046 0 16V2Z" fill="#C4CDDF"/>
<path d="M2.69995 5.08869C2.69995 4.51493 3.16508 4.0498 3.73884 4.0498H14.2611C14.8348 4.0498 15.3 4.51493 15.3 5.08869C15.3 5.66246 14.8348 6.12758 14.2611 6.12758H3.73884C3.16508 6.12758 2.69995 5.66246 2.69995 5.08869Z" fill="white"/>
<path d="M2.69995 8.9998C2.69995 8.42604 3.16508 7.96092 3.73884 7.96092H14.2611C14.8348 7.96092 15.3 8.42604 15.3 8.9998C15.3 9.57357 14.8348 10.0387 14.2611 10.0387H3.73884C3.16508 10.0387 2.69995 9.57357 2.69995 8.9998Z" fill="white"/>
<path d="M2.69995 12.9109C2.69995 12.3372 3.16508 11.872 3.73884 11.872H14.2611C14.8348 11.872 15.3 12.3372 15.3 12.9109C15.3 13.4847 14.8348 13.9498 14.2611 13.9498H3.73884C3.16508 13.9498 2.69995 13.4847 2.69995 12.9109Z" fill="white"/>
</g>
</svg>
