<svg width="22" height="18" viewBox="0 0 22 18" fill="none" xmlns="http://www.w3.org/2000/svg">
<path d="M14.4286 16.9663V15.2521C14.4286 14.3427 14.0673 13.4707 13.4243 12.8277C12.7814 12.1847 11.9093 11.8235 11 11.8235H4.99998C4.09067 11.8235 3.2186 12.1847 2.57562 12.8277C1.93263 13.4707 1.57141 14.3427 1.57141 15.2521V16.9663" stroke="#606483" stroke-width="1.5" stroke-linecap="round" stroke-linejoin="round"/>
<path d="M7.99998 8.39486C9.89353 8.39486 11.4286 6.85984 11.4286 4.96629C11.4286 3.07274 9.89353 1.53772 7.99998 1.53772C6.10643 1.53772 4.57141 3.07274 4.57141 4.96629C4.57141 6.85984 6.10643 8.39486 7.99998 8.39486Z" stroke="#606483" stroke-width="1.5" stroke-linecap="round" stroke-linejoin="round"/>
<path d="M15.2856 8.39483L16.9999 10.1091L20.4285 6.68054" stroke="#606483" stroke-width="1.5" stroke-linecap="round" stroke-linejoin="round"/>
</svg>
