<svg width="22" height="22" viewBox="0 0 22 22" fill="none" xmlns="http://www.w3.org/2000/svg">
<path fill-rule="evenodd" clip-rule="evenodd" d="M11.29 6.78457C10.7773 6.69663 10.25 6.79298 9.8015 7.05656C9.35302 7.32014 9.01228 7.73394 8.83965 8.22467C8.68256 8.67124 8.19321 8.9059 7.74665 8.74881C7.30008 8.59172 7.06542 8.10236 7.22251 7.6558C7.52948 6.78316 8.13539 6.04733 8.93291 5.57862C9.73042 5.10991 10.6681 4.93858 11.5798 5.09496C12.4916 5.25135 13.3185 5.72537 13.9143 6.43306C14.5098 7.14052 14.8359 8.03588 14.8347 8.96062C14.8345 10.4354 13.7397 11.4239 12.923 11.9683C12.4886 12.258 12.0602 12.4716 11.7438 12.6122C11.5844 12.683 11.4504 12.7367 11.3542 12.7733C11.3061 12.7917 11.2672 12.8058 11.2391 12.8158L11.2053 12.8277L11.1947 12.8313L11.1911 12.8325L11.1898 12.8329L11.1892 12.8331C11.1889 12.8332 11.1887 12.8333 10.9277 12.0504L11.1887 12.8333C10.7396 12.983 10.2542 12.7403 10.1045 12.2912C9.95493 11.8426 10.1969 11.3578 10.645 11.2075C10.6453 11.2074 10.6456 11.2073 10.646 11.2072L10.6457 11.2073L10.6475 11.2066L10.6648 11.2006C10.6816 11.1946 10.7085 11.1849 10.744 11.1713C10.8151 11.1442 10.9201 11.1023 11.0476 11.0456C11.305 10.9312 11.6416 10.7623 11.9721 10.542C12.6853 10.0665 13.1204 9.52516 13.1204 8.96021L13.1204 8.95894C13.1212 8.43873 12.9378 7.93503 12.6028 7.53706C12.2678 7.13908 11.8027 6.87252 11.29 6.78457ZM14.8347 8.96062C14.8347 8.96091 14.8347 8.9612 14.8347 8.96149L13.9775 8.96021H14.8347C14.8347 8.96035 14.8347 8.96048 14.8347 8.96062Z" fill="#606483"/>
<path fill-rule="evenodd" clip-rule="evenodd" d="M10.142 16.1003C10.142 15.6269 10.5258 15.2432 10.9992 15.2432H11.0087C11.4821 15.2432 11.8658 15.6269 11.8658 16.1003C11.8658 16.5737 11.4821 16.9574 11.0087 16.9574H10.9992C10.5258 16.9574 10.142 16.5737 10.142 16.1003Z" fill="#606483"/>
<path fill-rule="evenodd" clip-rule="evenodd" d="M11 2.34315C6.21878 2.34315 2.34284 6.21908 2.34284 11.0003C2.34284 15.7815 6.21878 19.6574 11 19.6574C15.7812 19.6574 19.6571 15.7815 19.6571 11.0003C19.6571 6.21908 15.7812 2.34315 11 2.34315ZM0.799988 11.0003C0.799988 5.36699 5.36668 0.800293 11 0.800293C16.6333 0.800293 21.2 5.36699 21.2 11.0003C21.2 16.6336 16.6333 21.2003 11 21.2003C5.36668 21.2003 0.799988 16.6336 0.799988 11.0003Z" fill="#606483"/>
</svg>
