<svg width="22" height="22" viewBox="0 0 22 22" fill="none" xmlns="http://www.w3.org/2000/svg">
<ellipse cx="11.0001" cy="11.0001" rx="10.2857" ry="10.2857" fill="#FF383C"/>
<path d="M15.456 8.52261C15.8303 8.14835 15.8303 7.54155 15.456 7.16729L15.2521 6.96331C14.8778 6.58905 14.271 6.58905 13.8968 6.96331L11.0225 9.8376L8.14821 6.96332C7.77395 6.58905 7.16715 6.58905 6.79289 6.96331L6.58892 7.16729C6.21466 7.54155 6.21466 8.14835 6.58892 8.52261L9.4632 11.3969L6.58892 14.2712C6.21466 14.6455 6.21466 15.2523 6.58892 15.6265L6.79289 15.8305C7.16715 16.2048 7.77395 16.2048 8.14821 15.8305L11.0225 12.9562L13.8968 15.8305C14.271 16.2048 14.8778 16.2048 15.2521 15.8305L15.456 15.6265C15.8303 15.2523 15.8303 14.6455 15.456 14.2712L12.5818 11.3969L15.456 8.52261Z" fill="white"/>
</svg>
