<svg width="25" height="20" viewBox="0 0 25 20" fill="none" xmlns="http://www.w3.org/2000/svg">
<path d="M16.3 19V17C16.3 15.9391 15.8786 14.9217 15.1285 14.1716C14.3783 13.4214 13.3609 13 12.3 13H5.30005C4.23918 13 3.22177 13.4214 2.47162 14.1716C1.72148 14.9217 1.30005 15.9391 1.30005 17V19" stroke="#606483" stroke-width="1.5" stroke-linecap="round" stroke-linejoin="round"/>
<path d="M8.80005 9C11.0092 9 12.8 7.20914 12.8 5C12.8 2.79086 11.0092 1 8.80005 1C6.59091 1 4.80005 2.79086 4.80005 5C4.80005 7.20914 6.59091 9 8.80005 9Z" stroke="#606483" stroke-width="1.5" stroke-linecap="round" stroke-linejoin="round"/>
<path d="M23.3 9H17.3" stroke="#606483" stroke-width="1.5" stroke-linecap="round" stroke-linejoin="round"/>
</svg>
