<svg width="22" height="18" viewBox="0 0 22 18" fill="none" xmlns="http://www.w3.org/2000/svg">
<path d="M14.4286 16.9661V15.2518C14.4286 14.3425 14.0673 13.4704 13.4243 12.8274C12.7814 12.1845 11.9093 11.8232 11 11.8232H4.99998C4.09067 11.8232 3.2186 12.1845 2.57562 12.8274C1.93263 13.4704 1.57141 14.3425 1.57141 15.2518V16.9661" stroke="#606483" stroke-width="1.5" stroke-linecap="round" stroke-linejoin="round"/>
<path d="M7.99998 8.39474C9.89353 8.39474 11.4286 6.85972 11.4286 4.96617C11.4286 3.07262 9.89353 1.5376 7.99998 1.5376C6.10643 1.5376 4.57141 3.07262 4.57141 4.96617C4.57141 6.85972 6.10643 8.39474 7.99998 8.39474Z" stroke="#606483" stroke-width="1.5" stroke-linecap="round" stroke-linejoin="round"/>
<path d="M17.8571 5.82324V10.9661" stroke="#606483" stroke-width="1.5" stroke-linecap="round" stroke-linejoin="round"/>
<path d="M20.4286 8.39453H15.2857" stroke="#606483" stroke-width="1.5" stroke-linecap="round" stroke-linejoin="round"/>
</svg>
