<svg width="23" height="22" viewBox="0 0 23 22" fill="none" xmlns="http://www.w3.org/2000/svg">
<path d="M3.04956 5.79179L3.85347 5.37118C4.6082 4.97706 5.54014 5.23442 6.03376 5.97174L7.01425 7.44108C7.44116 8.08084 7.42961 8.9244 6.98382 9.52636L5.74418 11.2016C5.99458 12.0288 6.43785 12.8083 7.07238 13.5401C7.67795 14.2497 8.42104 14.8332 9.25763 15.2559L10.9525 14.341C11.5957 13.9949 12.3901 14.1227 12.9237 14.6577L14.1691 15.9037C14.7905 16.5261 14.8864 17.5184 14.3932 18.2259L13.8643 18.9843C13.3381 19.7389 12.4582 20.1349 11.555 20.0223C9.42217 19.7576 7.22278 18.2419 4.95607 15.4755C2.68609 12.7048 1.59913 10.2046 1.69656 7.97786C1.73735 7.04086 2.25157 6.20894 3.04956 5.79179Z" stroke="#606483" stroke-width="1.5" stroke-linejoin="round"/>
<path d="M14.7307 10.8907L14.7311 10.89L14.7311 10.8899L14.7307 10.8907ZM14.7307 10.8907L14.6496 10.7665L14.6491 10.7668L14.7305 10.8912L14.7312 10.8923L14.7312 10.8923L14.7336 10.8959L14.7414 10.9078H14.7419L14.734 10.8957L14.7312 10.8914L14.7312 10.8914L14.7307 10.8907ZM18.1596 8.60583C18.0234 8.60583 17.8902 8.64555 17.7763 8.72012L14.8869 10.6111V9.30583C14.8869 8.91923 14.5735 8.60583 14.1869 8.60583C13.7913 8.60583 13.4144 8.45141 13.1385 8.18057C12.8631 7.91016 12.7107 7.54618 12.7107 7.16943V2.89665C12.7107 2.51991 12.8631 2.15593 13.1385 1.88551C13.4144 1.61467 13.7913 1.46025 14.1869 1.46025H20.7156C21.1112 1.46025 21.4881 1.61467 21.764 1.88551C22.0394 2.15592 22.1918 2.51991 22.1918 2.89665V7.16943C22.1918 7.54618 22.0394 7.91016 21.764 8.18057C21.4881 8.45141 21.1112 8.60583 20.7156 8.60583H18.1596Z" stroke="#606483" stroke-width="1.4" stroke-linecap="round" stroke-linejoin="round"/>
</svg>
