<svg width="22" height="22" viewBox="0 0 22 22" fill="none" xmlns="http://www.w3.org/2000/svg">
<ellipse cx="11.0001" cy="11.0001" rx="10.2857" ry="10.2857" fill="#FFA438"/>
<path fill-rule="evenodd" clip-rule="evenodd" d="M9.73706 11.6826C9.73706 12.3926 10.3127 12.9683 11.0228 12.9683C11.7328 12.9683 12.3085 12.3926 12.3085 11.6826L12.3085 6.25397C12.3085 5.54389 11.7328 4.96826 11.0228 4.96826C10.3127 4.96826 9.73706 5.54389 9.73706 6.25397V11.6826ZM11.0228 17.254C11.7328 17.254 12.3085 16.6784 12.3085 15.9683C12.3085 15.2582 11.7328 14.6826 11.0228 14.6826C10.3127 14.6826 9.73706 15.2582 9.73706 15.9683C9.73706 16.6784 10.3127 17.254 11.0228 17.254Z" fill="white"/>
</svg>
