<svg width="22" height="22" viewBox="0 0 22 22" fill="none" xmlns="http://www.w3.org/2000/svg">
<path d="M15.7024 4.21409C14.3105 3.28402 12.674 2.7876 10.9999 2.7876C8.75506 2.7876 6.60214 3.67937 5.01478 5.26673C3.42741 6.85409 2.53564 9.00701 2.53564 11.2519C2.53564 12.926 3.03207 14.5624 3.96213 15.9544C4.8922 17.3463 6.21414 18.4312 7.76079 19.0719C9.30743 19.7125 11.0093 19.8801 12.6512 19.5535C14.2931 19.2269 15.8013 18.4208 16.9851 17.237C18.1688 16.0533 18.975 14.5451 19.3016 12.9032C19.6282 11.2613 19.4605 9.55939 18.8199 8.01274C18.1793 6.46609 17.0944 5.14415 15.7024 4.21409Z" stroke="#606483" stroke-width="1.5"/>
<path d="M14.5934 13.8207C14.7712 13.773 14.9229 13.6567 15.0149 13.4972C15.107 13.3377 15.1319 13.1482 15.0843 12.9704C15.0366 12.7925 14.9203 12.6409 14.7608 12.5488L11.5697 10.7065V7.44783C11.5697 7.26369 11.4966 7.0871 11.3664 6.95689C11.2362 6.82669 11.0596 6.75354 10.8754 6.75354C10.6913 6.75354 10.5147 6.82669 10.3845 6.95689C10.2543 7.0871 10.1812 7.26369 10.1812 7.44783V11.1507C10.1814 11.3159 10.2407 11.4756 10.3484 11.601C10.4561 11.7263 10.605 11.809 10.7684 11.8342C10.797 11.8585 10.8275 11.8805 10.8597 11.8999L14.0665 13.7513C14.226 13.8434 14.4155 13.8683 14.5934 13.8207Z" fill="#606483"/>
</svg>
