<svg width="16" height="16" viewBox="0 0 16 16" fill="none" xmlns="http://www.w3.org/2000/svg">
<path d="M8.00011 2C4.68811 2 2.00011 4.688 2.00011 8C2.00011 11.312 4.68811 14 8.00011 14C11.3121 14 14.0001 11.312 14.0001 8C14.0001 4.688 11.3121 2 8.00011 2ZM3.20011 8C3.20011 5.348 5.34811 3.2 8.00011 3.2C9.11011 3.2 10.1301 3.578 10.9401 4.214L4.21411 10.94C3.55517 10.1019 3.19794 9.06613 3.20011 8V8ZM8.00011 12.8C6.89011 12.8 5.87011 12.422 5.06011 11.786L11.7861 5.06C12.445 5.89812 12.8023 6.93387 12.8001 8C12.8001 10.652 10.6521 12.8 8.00011 12.8Z" fill="#232056"/>
</svg>
