<svg width="16" height="16" viewBox="0 0 16 16" fill="none" xmlns="http://www.w3.org/2000/svg">
<path d="M4 4.52381C4 4.23452 4.23452 4 4.52381 4H11.4762C11.7655 4 12 4.23452 12 4.52381C12 4.8131 11.7655 5.04762 11.4762 5.04762H4.52381C4.23452 5.04762 4 4.8131 4 4.52381ZM4 7.66667C4 7.37737 4.23452 7.14286 4.52381 7.14286H11.4762C11.7655 7.14286 12 7.37737 12 7.66667C12 7.95596 11.7655 8.19048 11.4762 8.19048H4.52381C4.23452 8.19048 4 7.95596 4 7.66667ZM4 10.8095C4 10.5202 4.23452 10.2857 4.52381 10.2857H11.4762C11.7655 10.2857 12 10.5202 12 10.8095C12 11.0988 11.7655 11.3333 11.4762 11.3333H4.52381C4.23452 11.3333 4 11.0988 4 10.8095Z" fill="#232056"/>
</svg>
