<svg width="16" height="16" viewBox="0 0 16 16" fill="none" xmlns="http://www.w3.org/2000/svg">
<path d="M2.66671 4.5H13.3334C13.7936 4.5 14.1667 4.8731 14.1667 5.33333V12C14.1667 12.4602 13.7936 12.8333 13.3334 12.8333H2.66671C2.20647 12.8333 1.83337 12.4602 1.83337 12V5.33333C1.83337 4.8731 2.20647 4.5 2.66671 4.5Z" stroke="#232056" stroke-linecap="round" stroke-linejoin="round"/>
<path d="M10.4167 4.2915V3.22462C10.4167 2.97715 10.2938 2.7398 10.075 2.56481C9.85617 2.38981 9.55942 2.2915 9.25 2.2915H6.91667C6.60725 2.2915 6.3105 2.38981 6.09171 2.56481C5.87292 2.7398 5.75 2.97715 5.75 3.22462V4.2915" stroke="#232056" stroke-linejoin="round"/>
<path d="M13.0834 4.29167V6.0698C13.0834 6.48226 12.82 6.87784 12.3511 7.16949C11.8823 7.46115 11.2464 7.625 10.5834 7.625H5.58337C4.92033 7.625 4.28445 7.46115 3.81561 7.16949C3.34677 6.87784 3.08337 6.48226 3.08337 6.0698V4.29167" stroke="#232056" stroke-linejoin="round"/>
<path d="M6.95837 8.66699H9.04171" stroke="#232056" stroke-linecap="round"/>
</svg>
