<svg width="16" height="16" viewBox="0 0 16 16" fill="none" xmlns="http://www.w3.org/2000/svg">
<path d="M11.858 9.91567V5.11428M4.08378 9.62007V5.11537M1.70766 14.3682L5.42934 10.9668M1.70766 14.3682C1.94298 14.5657 2.54779 14.5364 2.66746 14.5285C2.6815 14.5276 2.69525 14.527 2.70932 14.527H13.4931C13.5066 14.527 13.5198 14.5265 13.5333 14.525C13.6329 14.5136 14.078 14.4489 14.2346 14.1871M1.70766 14.3682C1.56709 14.2525 1.59553 13.4888 1.60019 13.3827C1.60056 13.3742 1.60076 13.3662 1.60076 13.3578V8.34726C1.60076 8.34726 1.60076 8.34726 1.60076 8.34726C1.60076 8.34726 1.60076 7.87692 1.60076 7.67294M14.2346 14.1871C12.7737 12.9122 10.4821 10.9668 10.4821 10.9668M14.2346 14.1871C14.4291 13.8551 14.4068 13.239 14.4011 13.1293C14.4006 13.118 14.4002 13.1067 14.4002 13.0954V8.1651C14.4002 8.1651 14.4002 8.1651 14.4002 8.1651C14.4002 8.1651 14.4002 7.88036 14.2901 7.67294M14.2901 7.67294L10.4821 10.9668M14.2901 7.67294C14.1609 7.42937 13.9583 7.1874 13.908 7.12882C13.9003 7.11981 13.8922 7.11128 13.8837 7.10296L11.858 5.11428M1.60076 7.67294L5.42934 10.9668M1.60076 7.67294C1.60076 7.457 2.05924 7.02893 2.10038 6.99095C2.10256 6.98894 2.1044 6.98723 2.10656 6.98519L4.08378 5.11537M4.08378 5.11537V3.88294C4.08378 3.60679 4.30764 3.38294 4.58378 3.38294H5.80816M5.80816 3.38294L7.60538 1.84638C7.79082 1.68783 8.06362 1.68628 8.25086 1.84271L10.0945 3.38294M5.80816 3.38294H10.0945M11.858 5.11428V3.88294C11.858 3.60679 11.6342 3.38294 11.358 3.38294H10.0945M5.42934 10.9668L7.58999 8.95758C7.78028 8.78063 8.07441 8.77893 8.26673 8.95369L10.4821 10.9668" stroke="#232056"/>
</svg>
