<svg width="16" height="16" viewBox="0 0 16 16" fill="none" xmlns="http://www.w3.org/2000/svg">
<path d="M12.7121 8.00532C12.8228 7.8054 12.9987 7.64943 13.2103 7.56337C13.422 7.47731 13.6568 7.46635 13.8756 7.53232L14.2341 7.64032L14.3301 7.67232C14.6271 7.78096 14.8891 7.96804 15.0882 8.21367C15.2874 8.4593 15.4162 8.7543 15.4611 9.06732C15.6096 10.1013 15.2776 11.3103 14.4771 12.6968C13.6786 14.0798 12.7996 14.9708 11.8321 15.3608C11.5213 15.4861 11.181 15.5195 10.8517 15.457C10.5224 15.3945 10.218 15.2388 9.97462 15.0083L9.70362 14.7513L9.64262 14.6883C9.49191 14.5183 9.4036 14.302 9.39224 14.075C9.38088 13.8481 9.44714 13.6241 9.58012 13.4398L10.2586 12.4998L10.3041 12.4428C10.3994 12.3348 10.5238 12.2566 10.6624 12.2174C10.8009 12.1782 10.9479 12.1797 11.0856 12.2218L12.1111 12.5353L12.1376 12.5403H12.1591C12.2816 12.5268 12.5306 12.2793 12.8366 11.7493C13.1766 11.1603 13.2466 10.8158 13.1531 10.7268L12.6316 10.2408L12.5651 10.1743C12.3991 9.99441 12.2896 9.76966 12.2503 9.52804C12.2111 9.28641 12.2437 9.03856 12.3441 8.81532L12.6751 8.07982L12.7121 8.00532Z" stroke="#232056"/>
<path d="M8.09021 12.5045H4.3292C4.18602 12.5045 4.06995 12.3885 4.06995 12.2453V11.875C4.06995 10.4943 5.18923 9.375 6.56995 9.375H8.58913C9.13926 9.375 9.70668 9.6386 10.0097 9.96422C10.1585 10.1241 10.2076 10.2589 10.2112 10.3472C10.214 10.4144 10.1946 10.5221 10.0301 10.6637C9.95206 10.7309 9.85638 10.8015 9.73643 10.8879C9.72236 10.898 9.70796 10.9084 9.69328 10.919C9.58845 10.9943 9.46928 11.08 9.35223 11.1721C9.08539 11.3822 8.78566 11.6585 8.58394 12.0401C8.50474 12.1899 8.41053 12.3168 8.31402 12.4006C8.2204 12.4819 8.14735 12.5045 8.09021 12.5045Z" stroke="#232056"/>
<path fill-rule="evenodd" clip-rule="evenodd" d="M1.09009 3.86035C1.09009 2.75578 1.98552 1.86035 3.09009 1.86035H12.7459C13.8505 1.86035 14.7459 2.75578 14.7459 3.86035V5.97236H13.9459V3.86035C13.9459 3.19761 13.4086 2.66035 12.7459 2.66035H3.09009C2.42735 2.66035 1.89009 3.19761 1.89009 3.86035V10.9715C1.89009 11.6342 2.42735 12.1715 3.09009 12.1715H5.9194V12.9715H3.09009C1.98552 12.9715 1.09009 12.0761 1.09009 10.9715V3.86035Z" fill="#232056"/>
<path d="M8.66988 5.9672C8.66988 6.81365 7.98369 7.49983 7.13725 7.49983C6.2908 7.49983 5.60461 6.81365 5.60461 5.9672C5.60461 5.12075 6.2908 4.43457 7.13725 4.43457C7.98369 4.43457 8.66988 5.12075 8.66988 5.9672Z" stroke="#232056"/>
</svg>
