<svg width="18" height="16" viewBox="0 0 18 16" fill="none" xmlns="http://www.w3.org/2000/svg">
<path d="M15.2222 14.8569V2.92036C15.2222 2.44886 15.0349 1.99668 14.7015 1.66328C14.3681 1.32988 13.9159 1.14258 13.4444 1.14258H4.55556C4.08406 1.14258 3.63188 1.32988 3.29848 1.66328C2.96508 1.99668 2.77778 2.44886 2.77778 2.92036V14.8569M15.2222 14.8569H2.77778M15.2222 14.8569H17M15.2222 14.8569H10.7778M2.77778 14.8569H1M2.77778 14.8569H7.22222M10.7778 14.8569V12.6981C10.7778 12.4624 10.6841 12.2363 10.5174 12.0696C10.3507 11.9029 10.1246 11.8092 9.88889 11.8092H8.11111C7.87536 11.8092 7.64927 11.9029 7.48257 12.0696C7.31587 12.2363 7.22222 12.4624 7.22222 12.6981V14.8569M10.7778 14.8569H7.22222M6.33333 4.69813H7.22222M6.33333 8.25369H7.22222M10.7778 4.69813H11.6667M10.7778 8.25369H11.6667" stroke="#232056" stroke-linecap="round" stroke-linejoin="round"/>
</svg>
