<svg width="16" height="16" viewBox="0 0 16 16" fill="none" xmlns="http://www.w3.org/2000/svg">
<path fill-rule="evenodd" clip-rule="evenodd" d="M1.65308 2.08691C1.65308 1.53463 2.10079 1.08691 2.65308 1.08691H11.9253C12.4776 1.08691 12.9253 1.53463 12.9253 2.08691V8.56664C12.9253 8.84279 12.7015 9.06664 12.4253 9.06664C12.1492 9.06664 11.9253 8.84279 11.9253 8.56664L11.9253 2.08691L2.65308 2.08691V13.8417H8.07117C8.34732 13.8417 8.57117 14.0655 8.57117 14.3417C8.57117 14.6178 8.34732 14.8417 8.07117 14.8417H2.65308C2.10079 14.8417 1.65308 14.394 1.65308 13.8417V2.08691Z" fill="#232056"/>
<path fill-rule="evenodd" clip-rule="evenodd" d="M4.14026 4.68066C4.14026 4.40452 4.36412 4.18066 4.64026 4.18066H9.93814C10.2143 4.18066 10.4381 4.40452 10.4381 4.68066C10.4381 4.95681 10.2143 5.18066 9.93814 5.18066H4.64026C4.36412 5.18066 4.14026 4.95681 4.14026 4.68066Z" fill="#232056"/>
<path fill-rule="evenodd" clip-rule="evenodd" d="M4.14026 6.68066C4.14026 6.40452 4.36412 6.18066 4.64026 6.18066H9.93814C10.2143 6.18066 10.4381 6.40452 10.4381 6.68066C10.4381 6.95681 10.2143 7.18066 9.93814 7.18066H4.64026C4.36412 7.18066 4.14026 6.95681 4.14026 6.68066Z" fill="#232056"/>
<path fill-rule="evenodd" clip-rule="evenodd" d="M4.14026 8.68066C4.14026 8.40452 4.36412 8.18066 4.64026 8.18066H7.10458C7.38073 8.18066 7.60458 8.40452 7.60458 8.68066C7.60458 8.95681 7.38073 9.18066 7.10458 9.18066H4.64026C4.36412 9.18066 4.14026 8.95681 4.14026 8.68066Z" fill="#232056"/>
<path fill-rule="evenodd" clip-rule="evenodd" d="M14.1362 9.72646C14.3614 9.8862 14.4146 10.1983 14.2548 10.4235L11.5463 14.2429C11.1998 14.7315 10.5043 14.808 10.06 14.4062L8.21949 12.7422C8.01465 12.557 7.99873 12.2408 8.18392 12.036C8.36912 11.8312 8.6853 11.8152 8.89014 12.0004L10.7306 13.6644L13.4391 9.84509C13.5988 9.61984 13.9109 9.56673 14.1362 9.72646Z" fill="#232056"/>
</svg>
