<svg width="16" height="16" viewBox="0 0 16 16" fill="none" xmlns="http://www.w3.org/2000/svg">
<path d="M3.70399 1.57623C3.70399 1.57623 4.57304 0.982739 5.18294 1.04763C6.00533 1.13513 6.51281 1.61393 7.11616 2.50015C7.62996 3.25483 7.95002 4.40091 7.81426 4.91261C7.56033 5.86975 5.84851 6.51436 5.84851 6.51436C5.70091 6.69997 6.34838 7.93215 7.11616 8.91781C7.80714 9.80473 8.65239 10.5391 8.87871 10.5326L8.91783 10.5272L8.96479 10.5114C8.96479 10.5114 9.96282 9.51136 11.0943 9.11149C11.6423 8.91781 12.3407 9.56222 12.9784 10.2276C14.0716 11.3681 14.3148 11.5871 14.0715 12.5646C13.9328 13.1221 13.4866 13.8221 13.4866 13.8221C13.1021 14.303 12.5876 14.6635 12.0043 14.8605C11.4209 15.0576 10.7933 15.083 10.1959 14.9337C8.33672 14.4691 6.51171 13.0703 4.70861 10.756C2.90099 8.43581 1.99079 6.31997 1.99921 4.40091C2.00166 3.81999 2.16146 3.25058 2.46163 2.75321C2.76181 2.25585 3.19114 1.84911 3.70399 1.57623Z" stroke="#232056" stroke-linejoin="round"/>
</svg>
