<svg width="64" height="64" viewBox="0 0 64 64" fill="none" xmlns="http://www.w3.org/2000/svg">
<g clip-path="url(#clip0_55495_54897)">
<rect width="64" height="64" rx="6" fill="#FFF8DF"/>
<rect width="64" height="64" transform="translate(-0.443359)" fill="#FFF8DF"/>
<g opacity="0.8">
<path d="M38.5696 25.1712C37.785 25.1712 37.1474 24.5337 37.1474 23.7491V18.9186C37.1474 17.8888 36.3138 17.0797 35.3084 17.0797H27.8054C26.7755 17.0797 25.9664 17.9133 25.9664 18.9186V23.7491C25.9664 24.5337 25.3289 25.1712 24.5442 25.1712C23.7596 25.1712 23.1221 24.5337 23.1221 23.7491V18.9186C23.1221 16.3441 25.2308 14.2354 27.8054 14.2354H35.3084C37.883 14.2354 39.9917 16.3441 39.9917 18.9186V23.7491C39.9917 24.5337 39.3542 25.1712 38.5696 25.1712Z" fill="#E8B974"/>
<path d="M18.4877 33.8754C14.5645 33.8754 11.377 30.6878 11.377 26.7646V45.8411C11.377 47.9989 13.1424 49.7643 15.3001 49.7643H36.9512C39.1089 49.7643 40.8744 47.9989 40.8744 45.8411V33.8754H18.4877Z" fill="#F09562"/>
<path d="M44.6258 33.8754H39.7708V45.8411C39.7708 47.9989 38.0054 49.7643 35.8477 49.7643H47.8133C49.9711 49.7643 51.7365 47.9989 51.7365 45.8411V26.7646C51.7365 30.6878 48.5489 33.8754 44.6258 33.8754Z" fill="#DB8A5D"/>
<path d="M36.9512 22.5962H15.3001C13.1424 22.5962 11.377 24.3616 11.377 26.5194V28.1867C11.377 32.1099 14.5645 35.2975 18.4877 35.2975H40.8744V26.4949C40.8744 24.3371 39.1089 22.5962 36.9512 22.5962Z" fill="#E1814C"/>
<path d="M39.7708 26.4954V35.2736H44.6258C48.5489 35.2736 51.7365 32.086 51.7365 28.1628V26.4954C51.7365 24.3377 49.9711 22.5723 47.8133 22.5723H35.8477C38.0054 22.5968 39.7708 24.3377 39.7708 26.4954Z" fill="#CB7545"/>
<path d="M21.0135 39.6864C20.2288 39.6864 19.5913 39.0489 19.5913 38.2643V32.3059C19.5913 31.5213 20.2288 30.8838 21.0135 30.8838C21.7981 30.8838 22.4356 31.5213 22.4356 32.3059V38.2643C22.4356 39.0489 21.7981 39.6864 21.0135 39.6864Z" fill="#FFD79D"/>
<path d="M42.1004 39.6864C41.3157 39.6864 40.6782 39.0489 40.6782 38.2643V32.3059C40.6782 31.5213 41.3157 30.8838 42.1004 30.8838C42.885 30.8838 43.5225 31.5213 43.5225 32.3059V38.2643C43.5225 39.0489 42.885 39.6864 42.1004 39.6864Z" fill="#FFD79D"/>
</g>
</g>
<defs>
<clipPath id="clip0_55495_54897">
<rect width="64" height="64" rx="6" fill="white"/>
</clipPath>
</defs>
</svg>
