<svg width="16" height="16" viewBox="0 0 16 16" fill="none" xmlns="http://www.w3.org/2000/svg">
<ellipse cx="8" cy="8" rx="8" ry="8" fill="#5FB6E7"/>
<path fill-rule="evenodd" clip-rule="evenodd" d="M7.01758 7.64204C7.01758 7.08975 7.46529 6.64204 8.01758 6.64204C8.56986 6.64204 9.01758 7.08975 9.01758 7.64204L9.01758 11.8643C9.01758 12.4165 8.56986 12.8643 8.01758 12.8643C7.46529 12.8643 7.01758 12.4165 7.01758 11.8643V7.64204ZM8.01758 3.30882C8.56986 3.30882 9.01758 3.75653 9.01758 4.30882C9.01758 4.8611 8.56986 5.30882 8.01758 5.30882C7.46529 5.30882 7.01758 4.8611 7.01758 4.30882C7.01758 3.75653 7.46529 3.30882 8.01758 3.30882Z" fill="white"/>
</svg>
