<svg width="16" height="16" viewBox="0 0 16 16" fill="none" xmlns="http://www.w3.org/2000/svg">
<circle cx="8.00024" cy="8" r="8" fill="#FFA438"/>
<path fill-rule="evenodd" clip-rule="evenodd" d="M7.0177 8.53081C7.0177 9.0831 7.46541 9.53081 8.0177 9.53081C8.56998 9.53081 9.0177 9.0831 9.0177 8.53082L9.0177 4.30859C9.0177 3.75631 8.56998 3.30859 8.0177 3.30859C7.46542 3.30859 7.0177 3.75631 7.0177 4.30859V8.53081ZM8.0177 12.8642C8.56998 12.8642 9.0177 12.4165 9.0177 11.8642C9.0177 11.3119 8.56998 10.8642 8.0177 10.8642C7.46542 10.8642 7.0177 11.3119 7.0177 11.8642C7.0177 12.4165 7.46542 12.8642 8.0177 12.8642Z" fill="white"/>
</svg>
