<svg width="18" height="17" viewBox="0 0 18 17" fill="none" xmlns="http://www.w3.org/2000/svg">
<path d="M0.164097 4.07765C-5.92291e-05 4.20062 -1.86258e-05 4.38757 -6.10352e-05 4.55927V15.9124C-6.10352e-05 16.1652 0.235713 16.3515 0.495379 16.3421C0.602835 16.3383 0.697238 16.2774 0.781702 16.2109L4.38986 13.3685C4.63056 13.1788 4.77104 12.8893 4.77104 12.5829V1.71523C4.77104 1.30682 4.30841 1.07022 3.97778 1.30998C2.47265 2.40142 0.301172 3.97496 0.164097 4.07765ZM6.8158 0.763465C6.48675 0.558662 6.06551 0.797744 6.06551 1.18533V12.4878C6.06551 12.8466 6.25766 13.1778 6.56906 13.3559L11.0426 15.9143C11.3759 16.105 11.7908 15.8643 11.7908 15.4803V4.60856C11.7908 4.27657 11.6256 3.96593 11.3507 3.77972C9.37431 2.44079 8.06972 1.54391 6.8158 0.763465ZM17.5046 0.703819C17.3971 0.707682 17.3027 0.768503 17.2183 0.835043L13.6101 3.67749C13.3694 3.8671 13.2289 4.1566 13.2289 4.46301V15.3559C13.2289 15.7655 13.6943 16.0013 14.0246 15.7592L17.2834 13.3698C17.3608 13.3131 17.4475 13.2709 17.5321 13.2257C17.6527 13.1614 17.7566 13.0737 17.8359 12.9683C17.9429 12.8261 18 12.6584 18 12.4867V1.13353C18 0.880762 17.7642 0.694482 17.5046 0.703819Z" fill="#606483"/>
</svg>
